  0
SECTION
  2
HEADER
  9
$ACADVER
  1
AC1015
  9
$ACADMAINTVER
 70
     6
  9
$DWGCODEPAGE
  3
ANSI_936
  9
$INSBASE
 10
0.0
 20
0.0
 30
0.0
  9
$EXTMIN
 10
-72.8698573563
 20
-104.7972239754
 30
0.0
  9
$EXTMAX
 10
72.8698573563
 20
104.7972239854
 30
0.0
  9
$LIMMIN
 10
0.0
 20
0.0
  9
$LIMMAX
 10
420.0
 20
297.0
  9
$ORTHOMODE
 70
     0
  9
$REGENMODE
 70
     1
  9
$FILLMODE
 70
     1
  9
$QTEXTMODE
 70
     0
  9
$MIRRTEXT
 70
     1
  9
$LTSCALE
 40
1.0
  9
$ATTMODE
 70
     1
  9
$TEXTSIZE
 40
3.5
  9
$TRACEWID
 40
1.0
  9
$TEXTSTYLE
  7
Standard
  9
$CLAYER
  8
0
  9
$CELTYPE
  6
ByLayer
  9
$CECOLOR
 62
   256
  9
$CELTSCALE
 40
1.0
  9
$DISPSILH
 70
     0
  9
$DIMSCALE
 40
1.0
  9
$DIMASZ
 40
3.302
  9
$DIMEXO
 40
0.0
  9
$DIMDLI
 40
3.75
  9
$DIMRND
 40
0.0
  9
$DIMDLE
 40
0.0
  9
$DIMEXE
 40
1.0
  9
$DIMTP
 40
0.0
  9
$DIMTM
 40
0.0
  9
$DIMTXT
 40
3.5
  9
$DIMCEN
 40
2.5
  9
$DIMTSZ
 40
0.0
  9
$DIMTOL
 70
     0
  9
$DIMLIM
 70
     0
  9
$DIMTIH
 70
     1
  9
$DIMTOH
 70
     1
  9
$DIMSE1
 70
     0
  9
$DIMSE2
 70
     0
  9
$DIMTAD
 70
     1
  9
$DIMZIN
 70
     0
  9
$DIMBLK
  1

  9
$DIMASO
 70
     1
  9
$DIMSHO
 70
     1
  9
$DIMPOST
  1

  9
$DIMAPOST
  1

  9
$DIMALT
 70
     0
  9
$DIMALTD
 70
     3
  9
$DIMALTF
 40
0.0393700787
  9
$DIMLFAC
 40
1.0
  9
$DIMTOFL
 70
     1
  9
$DIMTVP
 40
0.0
  9
$DIMTIX
 70
     0
  9
$DIMSOXD
 70
     0
  9
$DIMSAH
 70
     0
  9
$DIMBLK1
  1

  9
$DIMBLK2
  1

  9
$DIMSTYLE
  2
ISO-25
  9
$DIMCLRD
 70
     0
  9
$DIMCLRE
 70
     0
  9
$DIMCLRT
 70
     0
  9
$DIMTFAC
 40
1.0
  9
$DIMGAP
 40
1.524
  9
$DIMJUST
 70
     0
  9
$DIMSD1
 70
     0
  9
$DIMSD2
 70
     0
  9
$DIMTOLJ
 70
     0
  9
$DIMTZIN
 70
     0
  9
$DIMALTZ
 70
     0
  9
$DIMALTTZ
 70
     0
  9
$DIMUPT
 70
     0
  9
$DIMDEC
 70
     2
  9
$DIMTDEC
 70
     2
  9
$DIMALTU
 70
     2
  9
$DIMALTTD
 70
     3
  9
$DIMTXSTY
  7
Standard
  9
$DIMAUNIT
 70
     0
  9
$DIMADEC
 70
     2
  9
$DIMALTRND
 40
0.0
  9
$DIMAZIN
 70
     0
  9
$DIMDSEP
 70
    44
  9
$DIMATFIT
 70
     3
  9
$DIMFRAC
 70
     0
  9
$DIMLDRBLK
  1

  9
$DIMLUNIT
 70
     2
  9
$DIMLWD
 70
    -2
  9
$DIMLWE
 70
    -2
  9
$DIMTMOVE
 70
     0
  9
$LUNITS
 70
     2
  9
$LUPREC
 70
     2
  9
$SKETCHINC
 40
1.0
  9
$FILLETRAD
 40
0.0
  9
$AUNITS
 70
     0
  9
$AUPREC
 70
     2
  9
$MENU
  1
.
  9
$ELEVATION
 40
0.0
  9
$PELEVATION
 40
0.0
  9
$THICKNESS
 40
0.0
  9
$LIMCHECK
 70
     0
  9
$CHAMFERA
 40
0.0
  9
$CHAMFERB
 40
0.0
  9
$CHAMFERC
 40
0.0
  9
$CHAMFERD
 40
0.0
  9
$SKPOLY
 70
     0
  9
$TDCREATE
 40
2460156.912136887
  9
$TDUCREATE
 40
2460157.12047022
  9
$TDUPDATE
 40
2460156.912165185
  9
$TDUUPDATE
 40
2460157.120498518
  9
$TDINDWG
 40
0.0000000116
  9
$TDUSRTIMER
 40
0.0000000116
  9
$USRTIMER
 70
     1
  9
$ANGBASE
 50
0.0
  9
$ANGDIR
 70
     0
  9
$PDMODE
 70
     0
  9
$PDSIZE
 40
-1.0
  9
$PLINEWID
 40
0.0
  9
$SPLFRAME
 70
     0
  9
$SPLINETYPE
 70
     6
  9
$SPLINESEGS
 70
     8
  9
$HANDSEED
  5
28A
  9
$SURFTAB1
 70
     6
  9
$SURFTAB2
 70
     6
  9
$SURFTYPE
 70
     6
  9
$SURFU
 70
     6
  9
$SURFV
 70
     6
  9
$UCSBASE
  2

  9
$UCSNAME
  2

  9
$UCSORG
 10
0.0
 20
0.0
 30
0.0
  9
$UCSXDIR
 10
1.0
 20
0.0
 30
0.0
  9
$UCSYDIR
 10
0.0
 20
1.0
 30
0.0
  9
$UCSORTHOREF
  2

  9
$UCSORTHOVIEW
 70
     0
  9
$UCSORGTOP
 10
0.0
 20
0.0
 30
0.0
  9
$UCSORGBOTTOM
 10
0.0
 20
0.0
 30
0.0
  9
$UCSORGLEFT
 10
0.0
 20
0.0
 30
0.0
  9
$UCSORGRIGHT
 10
0.0
 20
0.0
 30
0.0
  9
$UCSORGFRONT
 10
0.0
 20
0.0
 30
0.0
  9
$UCSORGBACK
 10
0.0
 20
0.0
 30
0.0
  9
$PUCSBASE
  2

  9
$PUCSNAME
  2

  9
$PUCSORG
 10
0.0
 20
0.0
 30
0.0
  9
$PUCSXDIR
 10
1.0
 20
0.0
 30
0.0
  9
$PUCSYDIR
 10
0.0
 20
1.0
 30
0.0
  9
$PUCSORTHOREF
  2

  9
$PUCSORTHOVIEW
 70
     0
  9
$PUCSORGTOP
 10
0.0
 20
0.0
 30
0.0
  9
$PUCSORGBOTTOM
 10
0.0
 20
0.0
 30
0.0
  9
$PUCSORGLEFT
 10
0.0
 20
0.0
 30
0.0
  9
$PUCSORGRIGHT
 10
0.0
 20
0.0
 30
0.0
  9
$PUCSORGFRONT
 10
0.0
 20
0.0
 30
0.0
  9
$PUCSORGBACK
 10
0.0
 20
0.0
 30
0.0
  9
$USERI1
 70
     0
  9
$USERI2
 70
     0
  9
$USERI3
 70
     0
  9
$USERI4
 70
     0
  9
$USERI5
 70
     0
  9
$USERR1
 40
0.0
  9
$USERR2
 40
0.0
  9
$USERR3
 40
0.0
  9
$USERR4
 40
0.0
  9
$USERR5
 40
0.0
  9
$WORLDVIEW
 70
     1
  9
$SHADEDGE
 70
     3
  9
$SHADEDIF
 70
    70
  9
$TILEMODE
 70
     1
  9
$MAXACTVP
 70
    64
  9
$PINSBASE
 10
0.0
 20
0.0
 30
0.0
  9
$PLIMCHECK
 70
     0
  9
$PEXTMIN
 10
1.0000000000E+20
 20
1.0000000000E+20
 30
1.0000000000E+20
  9
$PEXTMAX
 10
-1.0000000000E+20
 20
-1.0000000000E+20
 30
-1.0000000000E+20
  9
$PLIMMIN
 10
0.0
 20
0.0
  9
$PLIMMAX
 10
420.0
 20
297.0
  9
$UNITMODE
 70
     0
  9
$VISRETAIN
 70
     1
  9
$PLINEGEN
 70
     0
  9
$PSLTSCALE
 70
     1
  9
$TREEDEPTH
 70
  3020
  9
$CMLSTYLE
  2
Standard
  9
$CMLJUST
 70
     0
  9
$CMLSCALE
 40
20.0
  9
$PROXYGRAPHICS
 70
     1
  9
$MEASUREMENT
 70
     1
  9
$CELWEIGHT
370
    -1
  9
$ENDCAPS
280
     0
  9
$JOINSTYLE
280
     0
  9
$LWDISPLAY
290
     1
  9
$INSUNITS
 70
     4
  9
$HYPERLINKBASE
  1

  9
$STYLESHEET
  1

  9
$XEDIT
290
     1
  9
$CEPSNTYPE
380
     0
  9
$PSTYLEMODE
290
     1
  9
$FINGERPRINTGUID
  2
{27ebecb2-acab-46d4-92f8-cb272a847538}
  9
$VERSIONGUID
  2
{FAEB1C32-E019-11D5-929B-00C0DF256EC4}
  9
$EXTNAMES
290
     1
  9
$PSVPSCALE
 40
0.0
  9
$OLESTARTUP
290
     0
  0
ENDSEC
  0
SECTION
  2
CLASSES
  0
CLASS
  1
ACDBDICTIONARYWDFLT
  2
AcDbDictionaryWithDefault
  3
ObjectDBX Classes
 90
        0
280
     0
281
     0
  0
CLASS
  1
VISUALSTYLE
  2
AcDbVisualStyle
  3
ObjectDBX Classes
 90
     4095
280
     0
281
     0
  0
CLASS
  1
MATERIAL
  2
AcDbMaterial
  3
ObjectDBX Classes
 90
     1153
280
     0
281
     0
  0
CLASS
  1
SCALE
  2
AcDbScale
  3
ObjectDBX Classes
 90
     1153
280
     0
281
     0
  0
CLASS
  1
TABLESTYLE
  2
AcDbTableStyle
  3
ObjectDBX Classes
 90
     4095
280
     0
281
     0
  0
CLASS
  1
MLEADERSTYLE
  2
AcDbMLeaderStyle
  3
ACDB_MLEADERSTYLE_CLASS
 90
     4095
280
     0
281
     0
  0
CLASS
  1
SUN
  2
AcDbSun
  3
SCENEOE
 90
     1153
280
     0
281
     0
  0
CLASS
  1
ACDBPLACEHOLDER
  2
AcDbPlaceHolder
  3
ObjectDBX Classes
 90
        0
280
     0
281
     0
  0
CLASS
  1
LAYOUT
  2
AcDbLayout
  3
ObjectDBX Classes
 90
        0
280
     0
281
     0
  0
ENDSEC
  0
SECTION
  2
TABLES
  0
TABLE
  2
VPORT
  5
8
330
0
100
AcDbSymbolTable
 70
     1
  0
VPORT
  5
29
330
8
100
AcDbSymbolTableRecord
100
AcDbViewportTableRecord
  2
*Active
 70
     0
 10
0.0
 20
0.0
 11
1.0
 21
1.0
 12
0.0
 22
0.000000005
 13
0.0
 23
0.0
 14
10.0
 24
10.0
 15
10.0
 25
10.0
 16
0.0
 26
0.0
 36
1.0
 17
0.0
 27
0.0
 37
0.0
 40
213.78633692
 41
0.6953414851
 42
50.0
 43
0.0
 44
0.0
 50
0.0
 51
0.0
 71
     0
 72
   100
 73
     1
 74
     3
 75
     0
 76
     0
 77
     0
 78
     0
281
     0
 65
     1
110
0.0
120
0.0
130
0.0
111
1.0
121
0.0
131
0.0
112
0.0
122
1.0
132
0.0
 79
     0
146
0.0
  0
ENDTAB
  0
TABLE
  2
LTYPE
  5
5
330
0
100
AcDbSymbolTable
 70
     6
  0
LTYPE
  5
14
330
5
100
AcDbSymbolTableRecord
100
AcDbLinetypeTableRecord
  2
ByBlock
 70
     0
  3

 72
    65
 73
     0
 40
0.0
  0
LTYPE
  5
15
330
5
100
AcDbSymbolTableRecord
100
AcDbLinetypeTableRecord
  2
ByLayer
 70
     0
  3

 72
    65
 73
     0
 40
0.0
  0
LTYPE
  5
16
330
5
100
AcDbSymbolTableRecord
100
AcDbLinetypeTableRecord
  2
Continuous
 70
     0
  3
Solid line
 72
    65
 73
     0
 40
0.0
  0
LTYPE
  5
5E
330
5
100
AcDbSymbolTableRecord
100
AcDbLinetypeTableRecord
  2
HIDDEN
 70
     0
  3
Hidden __ __ __ __ __ __ __ __ __ __ __ __ __ __
 72
    65
 73
     2
 40
1.905
 49
1.27
 74
     0
 49
-0.635
 74
     0
  0
LTYPE
  5
5F
330
5
100
AcDbSymbolTableRecord
100
AcDbLinetypeTableRecord
  2
PHANTOM
 70
     0
  3
Phantom ______  __  __  ______  __  __  ______
 72
    65
 73
     6
 40
12.7
 49
6.35
 74
     0
 49
-1.27
 74
     0
 49
1.27
 74
     0
 49
-1.27
 74
     0
 49
1.27
 74
     0
 49
-1.27
 74
     0
  0
LTYPE
  5
60
330
5
100
AcDbSymbolTableRecord
100
AcDbLinetypeTableRecord
  2
CENTER
 70
     0
  3
Center ____ _ ____ _ ____ _ ____ _ ____ _ ____
 72
    65
 73
     4
 40
10.16
 49
6.35
 74
     0
 49
-1.27
 74
     0
 49
1.27
 74
     0
 49
-1.27
 74
     0
  0
LTYPE
  5
61
330
5
100
AcDbSymbolTableRecord
100
AcDbLinetypeTableRecord
  2
CENTERX2
 70
     0
  3
Center (2x) ________  __  ________  __  _____
 72
    65
 73
     4
 40
20.32
 49
12.7
 74
     0
 49
-2.54
 74
     0
 49
2.54
 74
     0
 49
-2.54
 74
     0
  0
LTYPE
  5
62
330
5
100
AcDbSymbolTableRecord
100
AcDbLinetypeTableRecord
  2
DOT2
 70
     0
  3
Dot (.5x) ........................................
 72
    65
 73
     2
 40
0.635
 49
0.0
 74
     0
 49
-0.635
 74
     0
  0
ENDTAB
  0
TABLE
  2
LAYER
  5
2
330
0
100
AcDbSymbolTable
 70
     1
  0
LAYER
  5
10
330
2
100
AcDbSymbolTableRecord
100
AcDbLayerTableRecord
  2
0
 70
     0
 62
     7
  6
Continuous
370
    -3
390
F
  0
ENDTAB
  0
TABLE
  2
STYLE
  5
3
330
0
100
AcDbSymbolTable
 70
     2
  0
STYLE
  5
11
330
3
100
AcDbSymbolTableRecord
100
AcDbTextStyleTableRecord
  2
Standard
 70
     0
 40
0.0
 41
1.0
 50
0.0
 71
     0
 42
3.5
  3
txt
  4

  0
STYLE
  5
286
330
3
100
AcDbSymbolTableRecord
100
AcDbTextStyleTableRecord
  2
SLDTEXTSTYLE0
 70
     0
 40
0.0
 41
0.7
 50
0.0
 71
     0
 42
3.5
  3
TXT
  4

  0
ENDTAB
  0
TABLE
  2
VIEW
  5
6
330
0
100
AcDbSymbolTable
 70
     0
  0
ENDTAB
  0
TABLE
  2
UCS
  5
7
330
0
100
AcDbSymbolTable
 70
     0
  0
ENDTAB
  0
TABLE
  2
APPID
  5
9
330
0
100
AcDbSymbolTable
 70
     1
  0
APPID
  5
12
330
9
100
AcDbSymbolTableRecord
100
AcDbRegAppTableRecord
  2
ACAD
 70
     0
  0
ENDTAB
  0
TABLE
  2
DIMSTYLE
  5
A
330
0
100
AcDbSymbolTable
 70
     1
100
AcDbDimStyleTable
  0
DIMSTYLE
105
27
330
A
100
AcDbSymbolTableRecord
100
AcDbDimStyleTableRecord
  2
ISO-25
 70
     0
 41
2.5
 42
0.625
 43
3.75
 44
1.25
 73
     0
 74
     0
 77
     1
 78
     8
140
2.5
141
2.5
143
0.0393700787
147
0.625
171
     3
172
     1
178
     0
271
     2
272
     2
274
     3
278
    44
283
     0
284
     8
340
11
  0
ENDTAB
  0
TABLE
  2
BLOCK_RECORD
  5
1
330
0
100
AcDbSymbolTable
 70
     1
  0
BLOCK_RECORD
  5
1F
330
1
100
AcDbSymbolTableRecord
100
AcDbBlockTableRecord
  2
*Model_Space
340
22
  0
BLOCK_RECORD
  5
1B
330
1
100
AcDbSymbolTableRecord
100
AcDbBlockTableRecord
  2
*Paper_Space
340
1E
  0
BLOCK_RECORD
  5
23
330
1
100
AcDbSymbolTableRecord
100
AcDbBlockTableRecord
  2
*Paper_Space0
340
26
  0
ENDTAB
  0
ENDSEC
  0
SECTION
  2
BLOCKS
  0
BLOCK
  5
20
330
1F
100
AcDbEntity
  8
0
100
AcDbBlockBegin
  2
*Model_Space
 70
     0
 10
0.0
 20
0.0
 30
0.0
  3
*Model_Space
  1

  0
ENDBLK
  5
21
330
1F
100
AcDbEntity
  8
0
100
AcDbBlockEnd
  0
BLOCK
  5
1C
330
1B
100
AcDbEntity
 67
     1
  8
0
100
AcDbBlockBegin
  2
*Paper_Space
 70
     0
 10
0.0
 20
0.0
 30
0.0
  3
*Paper_Space
  1

  0
ENDBLK
  5
1D
330
1B
100
AcDbEntity
 67
     1
  8
0
100
AcDbBlockEnd
  0
BLOCK
  5
24
330
23
100
AcDbEntity
  8
0
100
AcDbBlockBegin
  2
*Paper_Space0
 70
     0
 10
0.0
 20
0.0
 30
0.0
  3
*Paper_Space0
  1

  0
ENDBLK
  5
25
330
23
100
AcDbEntity
  8
0
100
AcDbBlockEnd
  0
ENDSEC
  0
SECTION
  2
ENTITIES
  0
LINE
  5
63
330
1F
100
AcDbEntity
  8
0
  6
Continuous
 62
     7
100
AcDbLine
 10
0.0
 20
31.7542648054
 30
0.0
 11
0.0
 21
58.0
 31
0.0
  0
LINE
  5
64
330
1F
100
AcDbEntity
  8
0
  6
Continuous
 62
     7
100
AcDbLine
 10
-27.5
 20
15.8771324027
 30
0.0
 11
-50.2294734195
 21
29.0
 31
0.0
  0
LINE
  5
65
330
1F
100
AcDbEntity
  8
0
  6
Continuous
 62
     7
100
AcDbLine
 10
-27.5
 20
-15.8771324027
 30
0.0
 11
-50.2294734195
 21
-29.0
 31
0.0
  0
LINE
  5
66
330
1F
100
AcDbEntity
  8
0
  6
Continuous
 62
     7
100
AcDbLine
 10
0.0
 20
-31.7542648054
 30
0.0
 11
0.0
 21
-58.0
 31
0.0
  0
LINE
  5
67
330
1F
100
AcDbEntity
  8
0
  6
Continuous
 62
     7
100
AcDbLine
 10
27.5
 20
15.8771324027
 30
0.0
 11
50.2294734195
 21
29.0
 31
0.0
  0
LINE
  5
68
330
1F
100
AcDbEntity
  8
0
  6
Continuous
 62
     7
100
AcDbLine
 10
27.5
 20
-15.8771324027
 30
0.0
 11
50.2294734195
 21
-29.0
 31
0.0
  0
LWPOLYLINE
  5
69
330
1F
100
AcDbEntity
  8
0
  6
Continuous
 62
     7
100
AcDbPolyline
 90
       12
 70
   128
 43
0.0
 10
-9.9999979138
 20
43.256539454
 10
-10.0
 20
46.0309785566
 10
-10.0
 20
46.0309785566
 10
0.0
 20
46.0309785566
 10
0.0
 20
46.0309785566
 10
0.0
 20
44.2361067617
 10
0.0
 20
44.2361067617
 10
-8.3333333333
 20
44.2361067617
 10
-8.3333333333
 20
44.2361067617
 10
-8.3333333333
 20
42.1848247104
 10
-8.3333333333
 20
42.1848247104
 10
-10.0
 20
43.256539454
  0
LWPOLYLINE
  5
6A
330
1F
100
AcDbEntity
  8
0
  6
Continuous
 62
     7
100
AcDbPolyline
 90
      175
 70
   128
 43
0.0
 10
-38.1945669651
 20
13.4501847911
 10
-36.6280829627
 20
12.5467392783
 10
-36.6280829627
 20
12.5467392783
 10
-36.7983553986
 20
12.3364027398
 10
-36.976640655
 20
12.1460982526
 10
-37.1609355268
 20
11.9758258167
 10
-37.3532432191
 20
11.823582227
 10
-37.5515605268
 20
11.6913706885
 10
-37.757890655
 20
11.5791912014
 10
-37.9702303986
 20
11.4870437655
 10
-38.1905829627
 20
11.4129251757
 10
-38.1905829627
 20
11.4129251757
 10
-38.5010797576
 20
11.3408097911
 10
-38.8075701422
 20
11.3007456885
 10
-39.1140605268
 20
11.2947360732
 10
-39.4165445012
 20
11.3187745347
 10
-39.7190284755
 20
11.3768674834
 10
-40.0195092447
 20
11.465008509
 10
-40.3179868088
 20
11.5872040219
 10
-40.6144611678
 20
11.7414508167
 10
-40.6144611678
 20
11.7414508167
 10
-40.866865014
 20
11.901707227
 10
-41.0952303986
 20
12.0759860732
 10
-41.3015605268
 20
12.2642873552
 10
-41.4858553986
 20
12.4686142783
 10
-41.648115014
 20
12.6869636373
 10
-41.7863361678
 20
12.9213386373
 10
-41.9025220653
 20
13.1697360732
 10
-41.9946695012
 20
13.4321559449
 10
-42.0627784755
 20
13.7005854321
 10
-42.1048457832
 20
13.9630053039
 10
-42.1188682191
 20
14.2214187655
 10
-42.1068489883
 20
14.4738226116
 10
-42.0687880909
 20
14.7202168424
 10
-42.0026823217
 20
14.9626046629
 10
-41.9105348858
 20
15.2009860732
 10
-41.7903425781
 20
15.433357868
 10
-41.7903425781
 20
15.433357868
 10
-41.6100541165
 20
15.7017873552
 10
-41.3957111678
 20
15.9341591501
 10
-41.1533233473
 20
16.1324764578
 10
-40.8768810396
 20
16.2967392783
 10
-40.5743970653
 20
16.4209379962
 10
-40.2478746294
 20
16.5030694065
 10
-39.9013201422
 20
16.5411303039
 10
-39.5327303986
 20
16.5371238937
 10
-39.5327303986
 20
16.5371238937
 10
-39.6849739883
 20
16.7093995347
 10
-39.821191937
 20
16.8876847911
 10
-39.9413842447
 20
17.0699764578
 10
-40.0415445012
 20
17.2562745347
 10
-40.1276823217
 20
17.448582227
 10
-40.195791296
 20
17.6448963296
 10
-40.2478746294
 20
17.8452168424
 10
-40.2819291165
 20
18.0515469706
 10
-40.2999579627
 20
18.2598803039
 10
-40.2999579627
 20
18.4662104321
 10
-40.2819291165
 20
18.6705373552
 10
-40.2458714242
 20
18.8748642783
 10
-40.1937880909
 20
19.0751847911
 10
-40.1256791165
 20
19.2755053039
 10
-40.0375380909
 20
19.4758258167
 10
-39.9333714242
 20
19.6721399193
 10
-39.9333714242
 20
19.6721399193
 10
-39.7570893729
 20
19.9465790219
 10
-39.5607752704
 20
20.1949764578
 10
-39.3444291165
 20
20.417332227
 10
-39.1060477063
 20
20.6136463296
 10
-38.8496374499
 20
20.7839187655
 10
-38.571191937
 20
20.9261463296
 10
-38.2747175781
 20
21.0443354321
 10
-37.9562079627
 20
21.1344796629
 10
-37.6276823217
 20
21.1945758167
 10
-37.2991566806
 20
21.2226206885
 10
-36.9706310396
 20
21.2166110732
 10
-36.6421053986
 20
21.1785501757
 10
-36.3135797576
 20
21.104431586
 10
-35.9850541165
 20
20.9982617142
 10
-35.6565284755
 20
20.8580373552
 10
-35.3280028345
 20
20.6857617142
 10
-35.3280028345
 20
20.6857617142
 10
-35.0295252704
 20
20.4974604321
 10
-34.7610957832
 20
20.2951367142
 10
-34.5187079627
 20
20.0767873552
 10
-34.3063682191
 20
19.8444155603
 10
-34.1200701422
 20
19.5960181244
 10
-33.961816937
 20
19.3315950475
 10
-33.8336118088
 20
19.0511463296
 10
-33.7314483473
 20
18.7566751757
 10
-33.6593329627
 20
18.4521879962
 10
-33.6192688601
 20
18.1436944065
 10
-33.6132592447
 20
17.8311944065
 10
-33.6372977063
 20
17.5146879962
 10
-33.6933874499
 20
17.1941751757
 10
-33.7815284755
 20
16.8696559449
 10
-33.9017207832
 20
16.5391270988
 10
-34.0539643729
 20
16.2065950475
 10
-34.0539643729
 20
16.2065950475
 10
-35.6665445012
 20
17.1380854321
 10
-35.6665445012
 20
17.1380854321
 10
-35.6044451422
 20
17.3163706885
 10
-35.5563682191
 20
17.4886463296
 10
-35.5223137319
 20
17.6549123552
 10
-35.5022816806
 20
17.8151687655
 10
-35.4962720653
 20
17.9674123552
 10
-35.5022816806
 20
18.1156495347
 10
-35.524316937
 20
18.2558738937
 10
-35.5603746294
 20
18.3920918424
 10
-35.6685477063
 20
18.6444956885
 10
-35.8247977063
 20
18.8688546629
 10
-36.0271214242
 20
19.0671719706
 10
-36.2775220653
 20
19.2394476116
 10
-36.2775220653
 20
19.2394476116
 10
-36.5639803986
 20
19.3736623552
 10
-36.852441937
 20
19.4477809449
 10
-37.1449098858
 20
19.463806586
 10
-37.4373778345
 20
19.417732868
 10
-37.5796053986
 20
19.3736623552
 10
-37.7138201422
 20
19.3195758167
 10
-37.8380188601
 20
19.2514668424
 10
-37.9542047576
 20
19.1733418424
 10
-38.0603746294
 20
19.0811944065
 10
-38.1585316806
 20
18.9790309449
 10
-38.2486759114
 20
18.8648482526
 10
-38.3288041165
 20
18.7386463296
 10
-38.3288041165
 20
18.7386463296
 10
-38.4029227063
 20
18.5904091501
 10
-38.4590124499
 20
18.4401687655
 10
-38.4970733473
 20
18.2859219706
 10
-38.5130989883
 20
18.1276687655
 10
-38.5130989883
 20
17.9654091501
 10
-38.4910637319
 20
17.8011463296
 10
-38.4509996294
 20
17.6328770988
 10
-38.3929066806
 20
17.4606014578
 10
-38.3127784755
 20
17.2903290219
 10
-38.2126182191
 20
17.1220597911
 10
-38.0924259114
 20
16.9598001757
 10
-37.9481951422
 20
16.7995437655
 10
-37.7859355268
 20
16.6452969706
 10
-37.601640655
 20
16.495056586
 10
-37.3973137319
 20
16.3468194065
 10
-37.1709515524
 20
16.2045918424
 10
-37.1709515524
 20
16.2045918424
 10
-37.976240014
 20
14.808357868
 10
-37.976240014
 20
14.808357868
 10
-38.2667047576
 20
14.9385662014
 10
-38.5271214242
 20
15.0347200475
 10
-38.757490014
 20
15.0988226116
 10
-38.9578105268
 20
15.1288706885
 10
-39.1380989883
 20
15.1328770988
 10
-39.3083714242
 20
15.1148482526
 10
-39.4706310396
 20
15.0747841501
 10
-39.6248778345
 20
15.0126847911
 10
-39.7651021935
 20
14.932556586
 10
-39.8852945012
 20
14.8384059449
 10
-39.9894611678
 20
14.7262264578
 10
-40.0755989883
 20
14.6000245347
 10
-40.0755989883
 20
14.6000245347
 10
-40.1577303986
 20
14.4237424834
 10
-40.1997977063
 20
14.245457227
 10
-40.2038041165
 20
14.0631655603
 10
-40.1677464242
 20
13.8788706885
 10
-40.0936278345
 20
13.7025886373
 10
-39.9834515524
 20
13.5443354321
 10
-39.8392207832
 20
13.402107868
 10
-39.6589323217
 20
13.2779091501
 10
-39.6589323217
 20
13.2779091501
 10
-39.4806470653
 20
13.1937745347
 10
-39.2943489883
 20
13.1396879962
 10
-39.102041296
 20
13.1156495347
 10
-38.9017207832
 20
13.1236623552
 10
-38.7034034755
 20
13.1617232526
 10
-38.5211118088
 20
13.229832227
 10
-38.3508393729
 20
13.3259860732
 10
-38.1945893729
 20
13.4501847911
  0
LWPOLYLINE
  5
6B
330
1F
100
AcDbEntity
  8
0
  6
Continuous
 62
     7
100
AcDbPolyline
 90
      175
 70
   128
 43
0.0
 10
-44.9673235416
 20
17.3604412014
 10
-43.4008457359
 20
16.4569956885
 10
-43.4008457359
 20
16.4569956885
 10
-43.5711181718
 20
16.2466591501
 10
-43.7494034282
 20
16.0563546629
 10
-43.9336983
 20
15.886082227
 10
-44.1260059923
 20
15.7338386373
 10
-44.3243233
 20
15.6016270988
 10
-44.5306534282
 20
15.4894476116
 10
-44.7429931718
 20
15.3973001757
 10
-44.9633457359
 20
15.323181586
 10
-44.9633457359
 20
15.323181586
 10
-45.2738425307
 20
15.2510662014
 10
-45.5803329154
 20
15.2110020988
 10
-45.8868233
 20
15.2049924834
 10
-46.1893072743
 20
15.2290309449
 10
-46.4917912487
 20
15.2871238937
 10
-46.7922720179
 20
15.3752649193
 10
-47.090749582
 20
15.4974604321
 10
-47.387223941
 20
15.651707227
 10
-47.387223941
 20
15.651707227
 10
-47.6396277872
 20
15.8119636373
 10
-47.8679931718
 20
15.9862424834
 10
-48.0743233
 20
16.1745437655
 10
-48.2586181718
 20
16.3788706885
 10
-48.4208777872
 20
16.5972200475
 10
-48.559098941
 20
16.8315950475
 10
-48.6752848384
 20
17.0799924834
 10
-48.7674322743
 20
17.3424123552
 10
-48.8355412487
 20
17.6108418424
 10
-48.8776085564
 20
17.8732617142
 10
-48.8916309923
 20
18.1316751757
 10
-48.8796117615
 20
18.3840790219
 10
-48.8415508641
 20
18.6304732526
 10
-48.7754450948
 20
18.8728610732
 10
-48.683297659
 20
19.1112424834
 10
-48.5631053513
 20
19.3436142783
 10
-48.5631053513
 20
19.3436142783
 10
-48.3828168897
 20
19.6120437655
 10
-48.168473941
 20
19.8444155603
 10
-47.9260861205
 20
20.042732868
 10
-47.6496438128
 20
20.2069956885
 10
-47.3471598384
 20
20.3311944065
 10
-47.0206374025
 20
20.4133258167
 10
-46.6740829154
 20
20.4513867142
 10
-46.3054931718
 20
20.4473803039
 10
-46.3054931718
 20
20.4473803039
 10
-46.4577367615
 20
20.6196559449
 10
-46.5939547102
 20
20.7979412014
 10
-46.7141470179
 20
20.980232868
 10
-46.8143072743
 20
21.1665309449
 10
-46.9004450948
 20
21.3588386373
 10
-46.9685540692
 20
21.5551527398
 10
-47.0206374025
 20
21.7554732526
 10
-47.0546918897
 20
21.9618033808
 10
-47.0727207359
 20
22.1701367142
 10
-47.0727207359
 20
22.3764668424
 10
-47.0546918897
 20
22.5807937655
 10
-47.0186341974
 20
22.7851206885
 10
-46.9665508641
 20
22.9854412014
 10
-46.8984418897
 20
23.1857617142
 10
-46.8103008641
 20
23.386082227
 10
-46.7061341974
 20
23.5823963296
 10
-46.7061341974
 20
23.5823963296
 10
-46.5298521461
 20
23.8568354321
 10
-46.3335380436
 20
24.105232868
 10
-46.1171918897
 20
24.3275886373
 10
-45.8788104795
 20
24.5239027398
 10
-45.6224002231
 20
24.6941751757
 10
-45.3439547102
 20
24.8364027398
 10
-45.0474803513
 20
24.9545918424
 10
-44.7289707359
 20
25.0447360732
 10
-44.4004450948
 20
25.104832227
 10
-44.0719194538
 20
25.1328770988
 10
-43.7433938128
 20
25.1268674834
 10
-43.4148681718
 20
25.088806586
 10
-43.0863425307
 20
25.0146879962
 10
-42.7578168897
 20
24.9085181244
 10
-42.4292912487
 20
24.7682937655
 10
-42.1007656077
 20
24.5960181244
 10
-42.1007656077
 20
24.5960181244
 10
-41.8022880436
 20
24.4077168424
 10
-41.5338585564
 20
24.2053931244
 10
-41.2914707359
 20
23.9870437655
 10
-41.0791309923
 20
23.7546719706
 10
-40.8928329154
 20
23.5062745347
 10
-40.7345797102
 20
23.2418514578
 10
-40.606374582
 20
22.9614027398
 10
-40.5042111205
 20
22.666931586
 10
-40.4320957359
 20
22.3624444065
 10
-40.3920316333
 20
22.0539508167
 10
-40.3860220179
 20
21.7414508167
 10
-40.4100604795
 20
21.4249444065
 10
-40.4661502231
 20
21.104431586
 10
-40.5542912487
 20
20.7799123552
 10
-40.6744835564
 20
20.449383509
 10
-40.8267271461
 20
20.1168514578
 10
-40.8267271461
 20
20.1168514578
 10
-42.4393072743
 20
21.0483418424
 10
-42.4393072743
 20
21.0483418424
 10
-42.3772079154
 20
21.2266270988
 10
-42.3291309923
 20
21.3989027398
 10
-42.2950765051
 20
21.5651687655
 10
-42.2750444538
 20
21.7254251757
 10
-42.2690348384
 20
21.8776687655
 10
-42.2750444538
 20
22.0259059449
 10
-42.2970797102
 20
22.1661303039
 10
-42.3331374025
 20
22.3023482526
 10
-42.4413104795
 20
22.5547520988
 10
-42.5975604795
 20
22.7791110732
 10
-42.7998841974
 20
22.9774283808
 10
-43.0502848384
 20
23.1497040219
 10
-43.0502848384
 20
23.1497040219
 10
-43.3367431718
 20
23.2839187655
 10
-43.6252047102
 20
23.3580373552
 10
-43.917672659
 20
23.3740629962
 10
-44.2101406077
 20
23.3279892783
 10
-44.3523681718
 20
23.2839187655
 10
-44.4865829154
 20
23.229832227
 10
-44.6107816333
 20
23.1617232526
 10
-44.7269675307
 20
23.0835982526
 10
-44.8331374025
 20
22.9914508167
 10
-44.9312944538
 20
22.8892873552
 10
-45.0214386846
 20
22.7751046629
 10
-45.1015668897
 20
22.6489027398
 10
-45.1015668897
 20
22.6489027398
 10
-45.1756854795
 20
22.5006655603
 10
-45.2317752231
 20
22.3504251757
 10
-45.2698361205
 20
22.1961783808
 10
-45.2858617615
 20
22.0379251757
 10
-45.2858617615
 20
21.8756655603
 10
-45.2638265051
 20
21.7114027398
 10
-45.2237624025
 20
21.543133509
 10
-45.1656694538
 20
21.370857868
 10
-45.0855412487
 20
21.2005854321
 10
-44.9853809923
 20
21.0323162014
 10
-44.8651886846
 20
20.870056586
 10
-44.7209579154
 20
20.7098001757
 10
-44.5586983
 20
20.5555533808
 10
-44.3744034282
 20
20.4053129962
 10
-44.1700765051
 20
20.2570758167
 10
-43.9437143256
 20
20.1148482526
 10
-43.9437143256
 20
20.1148482526
 10
-44.7490027872
 20
18.7186142783
 10
-44.7490027872
 20
18.7186142783
 10
-45.0394675307
 20
18.8488226116
 10
-45.2998841974
 20
18.9449764578
 10
-45.5302527872
 20
19.0090790219
 10
-45.7305733
 20
19.0391270988
 10
-45.9108617615
 20
19.043133509
 10
-46.0811341974
 20
19.0251046629
 10
-46.2433938128
 20
18.9850405603
 10
-46.3976406077
 20
18.9229412014
 10
-46.5378649666
 20
18.8428129962
 10
-46.6580572743
 20
18.7486623552
 10
-46.762223941
 20
18.636482868
 10
-46.8483617615
 20
18.5102809449
 10
-46.8483617615
 20
18.5102809449
 10
-46.9304931718
 20
18.3339988937
 10
-46.9725604795
 20
18.1557136373
 10
-46.9765668897
 20
17.9734219706
 10
-46.9405091974
 20
17.7891270988
 10
-46.8663906077
 20
17.6128450475
 10
-46.7562143256
 20
17.4545918424
 10
-46.6119835564
 20
17.3123642783
 10
-46.4316950948
 20
17.1881655603
 10
-46.4316950948
 20
17.1881655603
 10
-46.2534098384
 20
17.1040309449
 10
-46.0671117615
 20
17.0499444065
 10
-45.8748040692
 20
17.0259059449
 10
-45.6744835564
 20
17.0339187655
 10
-45.4761662487
 20
17.0719796629
 10
-45.293874582
 20
17.1400886373
 10
-45.1236021461
 20
17.2362424834
 10
-44.9673521461
 20
17.3604412014
  0
LWPOLYLINE
  5
6C
330
1F
100
AcDbEntity
  8
0
  6
Continuous
 62
     7
100
AcDbPolyline
 90
      100
 70
   128
 43
0.0
 10
-30.9289544821
 20
-25.5976206885
 10
-29.3384195012
 20
-24.6801527398
 10
-29.3384195012
 20
-24.6801527398
 10
-29.1721534755
 20
-25.0327168424
 10
-29.0379387319
 20
-25.3812745347
 10
-28.9397816806
 20
-25.7238226116
 10
-28.8736759114
 20
-26.0603610732
 10
-28.8436278345
 20
-26.3928931244
 10
-28.8456310396
 20
-26.7214187655
 10
-28.8816887319
 20
-27.0439347911
 10
-28.9518009114
 20
-27.3624444065
 10
-29.0519611678
 20
-27.6689347911
 10
-29.1821695012
 20
-27.9593995347
 10
-29.3404227063
 20
-28.2338386373
 10
-29.5267207832
 20
-28.4902488937
 10
-29.743066937
 20
-28.730633509
 10
-29.9874579627
 20
-28.9549924834
 10
-30.2598938601
 20
-29.1633258167
 10
-30.5623778345
 20
-29.3536303039
 10
-30.5623778345
 20
-29.3536303039
 10
-30.9530028345
 20
-29.5499444065
 10
-31.3436278345
 20
-29.6941751757
 10
-31.7362560396
 20
-29.7823162014
 10
-32.1288842447
 20
-29.8183738937
 10
-32.5175060396
 20
-29.8003450475
 10
-32.898115014
 20
-29.7262264578
 10
-33.2687079627
 20
-29.6020277398
 10
-33.6312880909
 20
-29.4217392783
 10
-33.9678265524
 20
-29.199383509
 10
-34.2602945012
 20
-28.9509860732
 10
-34.508691937
 20
-28.6725405603
 10
-34.7150220653
 20
-28.3680533808
 10
-34.7150220653
 20
-28.3680533808
 10
-34.8191887319
 20
-28.1717392783
 10
-34.9133393729
 20
-27.9634059449
 10
-34.9934675781
 20
-27.745056586
 10
-35.0635797576
 20
-27.5126847911
 10
-35.1236759114
 20
-27.2702969706
 10
-35.1697496294
 20
-27.0178931244
 10
-35.2058073217
 20
-26.7514668424
 10
-35.2298457832
 20
-26.4750245347
 10
-35.2398618088
 20
-26.1805533808
 10
-35.2338521935
 20
-25.8640469706
 10
-35.2098137319
 20
-25.5235020988
 10
-35.1697496294
 20
-25.1609219706
 10
-35.1136598858
 20
-24.776306586
 10
-35.0415445012
 20
-24.3676527398
 10
-34.9514002704
 20
-23.9349604321
 10
-34.8452303986
 20
-23.480232868
 10
-34.8452303986
 20
-23.480232868
 10
-34.4686278345
 20
-21.9117232526
 10
-34.4686278345
 20
-21.9117232526
 10
-37.5195092447
 20
-23.6745437655
 10
-37.5195092447
 20
-23.6745437655
 10
-38.3909034755
 20
-22.1661303039
 10
-38.3909034755
 20
-22.1661303039
 10
-32.4594130909
 20
-18.7406495347
 10
-32.4594130909
 20
-18.7406495347
 10
-32.008691937
 20
-19.5198963296
 10
-32.008691937
 20
-19.5198963296
 10
-33.0964323217
 20
-23.7506655603
 10
-33.0964323217
 20
-23.7506655603
 10
-33.1905829627
 20
-24.121258509
 10
-33.2707111678
 20
-24.4678129962
 10
-33.336816937
 20
-24.7903290219
 10
-33.3909034755
 20
-25.0908097911
 10
-33.4309675781
 20
-25.3672520988
 10
-33.4590124499
 20
-25.6196559449
 10
-33.4730348858
 20
-25.8480213296
 10
-33.4730348858
 20
-26.0543514578
 10
-33.444990014
 20
-26.4229412014
 10
-33.3848938601
 20
-26.7534700475
 10
-33.2947496294
 20
-27.0479412014
 10
-33.1725541165
 20
-27.3063546629
 10
-33.1725541165
 20
-27.3063546629
 10
-33.0163041165
 20
-27.5307136373
 10
-32.8300060396
 20
-27.7110020988
 10
-32.6156630909
 20
-27.8452168424
 10
-32.3732752704
 20
-27.933357868
 10
-32.1148618088
 20
-27.9714187655
 10
-31.8564483473
 20
-27.9573963296
 10
-31.5960316806
 20
-27.8872841501
 10
-31.3376182191
 20
-27.7650886373
 10
-31.3376182191
 20
-27.7650886373
 10
-31.2134195012
 20
-27.6849604321
 10
-31.101240014
 20
-27.5948162014
 10
-31.0010797576
 20
-27.4966591501
 10
-30.914941937
 20
-27.3904892783
 10
-30.8388201422
 20
-27.2743033808
 10
-30.7767207832
 20
-27.1481014578
 10
-30.7286438601
 20
-27.0138867142
 10
-30.6905829627
 20
-26.8716591501
 10
-30.6665445012
 20
-26.7234219706
 10
-30.6585316806
 20
-26.5711783808
 10
-30.664541296
 20
-26.4149283808
 10
-30.6865765524
 20
-26.2566751757
 10
-30.7246374499
 20
-26.0964187655
 10
-30.7767207832
 20
-25.9341591501
 10
-30.8448297576
 20
-25.7678931244
 10
-30.9289643729
 20
-25.5976206885
  0
LWPOLYLINE
  5
6D
330
1F
100
AcDbEntity
  8
0
  6
Continuous
 62
     7
100
AcDbPolyline
 90
       14
 70
   128
 43
0.0
 10
-34.744977951
 20
-31.4790309449
 10
-40.3639867615
 20
-34.7242232526
 10
-40.3639867615
 20
-34.7242232526
 10
-40.8587784282
 20
-33.8688546629
 10
-40.8587784282
 20
-33.8688546629
 10
-41.5679130436
 20
-23.7126046629
 10
-41.5679130436
 20
-23.7126046629
 10
-39.8010861205
 20
-23.5864027398
 10
-39.8010861205
 20
-23.5864027398
 10
-39.2161502231
 20
-32.0218995347
 10
-39.2161502231
 20
-32.0218995347
 10
-35.6284098384
 20
-29.948582227
 10
-35.6284098384
 20
-29.948582227
 10
-34.7449963769
 20
-31.4790309449
  0
LWPOLYLINE
  5
6E
330
1F
100
AcDbEntity
  8
0
  6
Continuous
 62
     7
100
AcDbPolyline
 90
      100
 70
   128
 43
0.0
 10
6.6666640341
 20
-39.4925170181
 10
6.6666666667
 20
-37.6976452232
 10
6.6666666667
 20
-37.6976452232
 10
7.0733173077
 20
-37.7276933002
 10
7.4579326923
 20
-37.7857862489
 10
7.8205128205
 20
-37.8679176591
 10
8.1610576923
 20
-37.976090736
 10
8.4775641026
 20
-38.1103054796
 10
8.7740384615
 20
-38.2705618899
 10
9.046474359
 20
-38.4568599668
 10
9.296875
 20
-38.6691997104
 10
9.5212339744
 20
-38.9015715053
 10
9.7175480769
 20
-39.1499689412
 10
9.8818108974
 20
-39.4163952232
 10
10.016025641
 20
-39.6968439412
 10
10.1221955128
 20
-39.9933183002
 10
10.1963141026
 20
-40.3058183002
 10
10.2423878205
 20
-40.6343439412
 10
10.2564102564
 20
-40.9788952232
 10
10.2564102564
 20
-40.9788952232
 10
10.2323717949
 20
-41.4015715053
 10
10.1602564103
 20
-41.7982061207
 10
10.0380608974
 20
-42.1687990694
 10
9.8677884615
 20
-42.5153535566
 10
9.6514423077
 20
-42.8318599668
 10
9.3930288462
 20
-43.1143118899
 10
9.0905448718
 20
-43.3647125309
 10
8.7459935897
 20
-43.5810586848
 10
8.3794070513
 20
-43.7553375309
 10
8.0088141026
 20
-43.8795362489
 10
7.6342147436
 20
-43.9556580437
 10
7.2576121795
 20
-43.9796965053
 10
7.2576121795
 20
-43.9796965053
 10
7.0292467949
 20
-43.9716836848
 10
6.7988782051
 20
-43.9496484284
 10
6.5625
 20
-43.913590736
 10
6.3221153846
 20
-43.8615074027
 10
6.077724359
 20
-43.7954016335
 10
5.8293269231
 20
-43.7152734284
 10
5.5749198718
 20
-43.6191195822
 10
5.3185096154
 20
-43.5089433002
 10
5.0540865385
 20
-43.3787349668
 10
4.7756410256
 20
-43.2244881719
 10
4.4871794872
 20
-43.0462029155
 10
4.1866987179
 20
-42.8418759925
 10
3.8721955128
 20
-42.615513813
 10
3.5476762821
 20
-42.3631099668
 10
3.2111378205
 20
-42.0866676591
 10
2.8625801282
 20
-41.7861868899
 10
2.8625801282
 20
-41.7861868899
 10
1.6666666667
 20
-40.7425170181
 10
1.6666666667
 20
-40.7425170181
 10
1.6666666667
 20
-44.1079016335
 10
1.6666666667
 20
-44.1079016335
 10
0.0
 20
-44.1079016335
 10
0.0
 20
-44.1079016335
 10
0.0
 20
-37.4412349668
 10
0.0
 20
-37.4412349668
 10
0.9094551282
 20
-37.4412349668
 10
0.9094551282
 20
-37.4412349668
 10
4.0604967949
 20
-40.4019721463
 10
4.0604967949
 20
-40.4019721463
 10
4.3369391026
 20
-40.6583824027
 10
4.5993589744
 20
-40.8947606078
 10
4.8477564103
 20
-41.1071003514
 10
5.0841346154
 20
-41.2954016335
 10
5.3044871795
 20
-41.4636708643
 10
5.5108173077
 20
-41.6079016335
 10
5.7051282051
 20
-41.7300971463
 10
5.8834134615
 20
-41.8302574027
 10
6.2199519231
 20
-41.9845041976
 10
6.5404647436
 20
-42.0966836848
 10
6.8449519231
 20
-42.162789454
 10
7.1314102564
 20
-42.1848247104
 10
7.1314102564
 20
-42.1848247104
 10
7.4078525641
 20
-42.162789454
 10
7.6582532051
 20
-42.0926772745
 10
7.8846153846
 20
-41.9804977873
 10
8.0849358974
 20
-41.8202413771
 10
8.2491987179
 20
-41.6239272745
 10
8.3673878205
 20
-41.4015715053
 10
8.4375
 20
-41.1511708643
 10
8.4615384615
 20
-40.8767317617
 10
8.4615384615
 20
-40.8767317617
 10
8.453525641
 20
-40.7345041976
 10
8.4314903846
 20
-40.5982862489
 10
8.3934294872
 20
-40.4680779155
 10
8.3413461538
 20
-40.3438791976
 10
8.2732371795
 20
-40.225690095
 10
8.1891025641
 20
-40.1135106078
 10
8.0909455128
 20
-40.007340736
 10
7.9787660256
 20
-39.9071804796
 10
7.8525641026
 20
-39.8150330437
 10
7.7163461538
 20
-39.7349048386
 10
7.5681089744
 20
-39.6667958643
 10
7.4098557692
 20
-39.6087029155
 10
7.2395833333
 20
-39.5626291976
 10
7.0592948718
 20
-39.5285747104
 10
6.8689903846
 20
-39.5045362489
 10
6.6666666667
 20
-39.4925170181
  0
LWPOLYLINE
  5
6F
330
1F
100
AcDbEntity
  8
0
  6
Continuous
 62
     7
100
AcDbPolyline
 90
       93
 70
   128
 43
0.0
 10
10.2564096451
 20
-48.757340736
 10
10.2483974359
 20
-49.0177574027
 10
10.2223557692
 20
-49.2681580437
 10
10.1802884615
 20
-49.5105458643
 10
10.1221955128
 20
-49.7429176591
 10
10.0460737179
 20
-49.9672766335
 10
9.9539262821
 20
-50.1816195822
 10
9.84375
 20
-50.3879497104
 10
9.7175480769
 20
-50.584263813
 10
9.5753205128
 20
-50.7705618899
 10
9.4130608974
 20
-50.944840736
 10
9.234775641
 20
-51.1091035566
 10
9.0384615385
 20
-51.2633503514
 10
8.8241185897
 20
-51.4055779155
 10
8.5917467949
 20
-51.537789454
 10
8.343349359
 20
-51.6579817617
 10
8.0749198718
 20
-51.7681580437
 10
7.7844551282
 20
-51.866315095
 10
7.4679487179
 20
-51.9504497104
 10
7.1233974359
 20
-52.022565095
 10
6.7528044872
 20
-52.0806580437
 10
6.3541666667
 20
-52.1267317617
 10
5.9274839744
 20
-52.1587830437
 10
5.4747596154
 20
-52.178815095
 10
4.9959935897
 20
-52.1848247104
 10
4.9959935897
 20
-52.1848247104
 10
4.5112179487
 20
-52.178815095
 10
4.0544871795
 20
-52.1587830437
 10
3.6258012821
 20
-52.1247285566
 10
3.2231570513
 20
-52.0786548386
 10
2.8505608974
 20
-52.0185586848
 10
2.5040064103
 20
-51.9464433002
 10
2.1834935897
 20
-51.8603054796
 10
1.8930288462
 20
-51.7601452232
 10
1.624599359
 20
-51.6499689412
 10
1.3762019231
 20
-51.5297766335
 10
1.1438301282
 20
-51.4015715053
 10
0.9314903846
 20
-51.2633503514
 10
0.7371794872
 20
-51.1151131719
 10
0.5608974359
 20
-50.9588631719
 10
0.4046474359
 20
-50.7946003514
 10
0.2644230769
 20
-50.6203215053
 10
0.1422275641
 20
-50.4360266335
 10
0.0360576923
 20
-50.2377093258
 10
-0.0520833333
 20
-50.0293759925
 10
-0.1262019231
 20
-49.8090234284
 10
-0.1822916667
 20
-49.5766516335
 10
-0.2243589744
 20
-49.3322606078
 10
-0.2483974359
 20
-49.0778535566
 10
-0.2564102564
 20
-48.8094240694
 10
-0.2564102564
 20
-48.8094240694
 10
-0.2483974359
 20
-48.5409945822
 10
-0.2243589744
 20
-48.2845843258
 10
-0.1822916667
 20
-48.0401933002
 10
-0.1262019231
 20
-47.803815095
 10
-0.0520833333
 20
-47.5814593258
 10
0.0380608974
 20
-47.3671163771
 10
0.1442307692
 20
-47.1647926591
 10
0.2664262821
 20
-46.9744881719
 10
0.406650641
 20
-46.7941997104
 10
0.562900641
 20
-46.6239272745
 10
0.7371794872
 20
-46.4616676591
 10
0.9274839744
 20
-46.3114272745
 10
1.1338141026
 20
-46.1712029155
 10
1.3581730769
 20
-46.0409945822
 10
1.6005608974
 20
-45.9208022745
 10
1.858974359
 20
-45.8106259925
 10
2.1414262821
 20
-45.7124689412
 10
2.4499198718
 20
-45.6263311207
 10
2.7884615385
 20
-45.554215736
 10
3.1550480769
 20
-45.4941195822
 10
3.5496794872
 20
-45.4500490694
 10
3.9723557692
 20
-45.4159945822
 10
4.4230769231
 20
-45.3959625309
 10
4.9018429487
 20
-45.3899529155
 10
4.9018429487
 20
-45.3899529155
 10
5.5669070513
 20
-45.4019721463
 10
6.1838942308
 20
-45.4420362489
 10
6.7548076923
 20
-45.506138813
 10
7.2776442308
 20
-45.5942798386
 10
7.7524038462
 20
-45.710465736
 10
8.1810897436
 20
-45.8526933002
 10
8.5616987179
 20
-46.0189593258
 10
8.8962339744
 20
-46.2112670181
 10
8.8962339744
 20
-46.2112670181
 10
9.2147435897
 20
-46.4516516335
 10
9.4911858974
 20
-46.7140715053
 10
9.7255608974
 20
-46.9985266335
 10
9.9158653846
 20
-47.3050170181
 10
10.0661057692
 20
-47.6355458643
 10
10.172275641
 20
-47.9861067617
 10
10.234375
 20
-48.3607061207
 10
10.2564102564
 20
-48.757340736
  0
LWPOLYLINE
  5
70
330
1F
100
AcDbEntity
  8
0
  6
Continuous
 62
     7
100
AcDbPolyline
 90
       73
 70
   128
 43
0.0
 10
8.461534977
 20
-48.8014112489
 10
8.4415064103
 20
-48.5670362489
 10
8.3834134615
 20
-48.3486868899
 10
8.2872596154
 20
-48.1423567617
 10
8.1510416667
 20
-47.9500490694
 10
8.0669070513
 20
-47.8599048386
 10
7.96875
 20
-47.7737670181
 10
7.8565705128
 20
-47.6956420181
 10
7.7303685897
 20
-47.6215234284
 10
7.5901442308
 20
-47.553414454
 10
7.437900641
 20
-47.4893118899
 10
7.2696314103
 20
-47.4332221463
 10
7.0873397436
 20
-47.381138813
 10
6.8890224359
 20
-47.335065095
 10
6.6666666667
 20
-47.2950009925
 10
6.4242788462
 20
-47.2609465053
 10
6.1598557692
 20
-47.2329016335
 10
5.8733974359
 20
-47.2128695822
 10
5.5649038462
 20
-47.1968439412
 10
5.234375
 20
-47.1888311207
 10
4.8818108974
 20
-47.1848247104
 10
4.8818108974
 20
-47.1848247104
 10
4.4250801282
 20
-47.1928375309
 10
4.0064102564
 20
-47.2128695822
 10
3.6237980769
 20
-47.2489272745
 10
3.2792467949
 20
-47.2970041976
 10
2.96875
 20
-47.3611067617
 10
2.6963141026
 20
-47.4392317617
 10
2.4599358974
 20
-47.5293759925
 10
2.2616185897
 20
-47.6355458643
 10
2.0913461538
 20
-47.7517317617
 10
1.9451121795
 20
-47.8759304796
 10
1.8209134615
 20
-48.0101452232
 10
1.71875
 20
-48.1503695822
 10
1.640625
 20
-48.3006099668
 10
1.5845352564
 20
-48.4588631719
 10
1.5504807692
 20
-48.6271324027
 10
1.5384615385
 20
-48.8014112489
 10
1.5384615385
 20
-48.8014112489
 10
1.5484775641
 20
-48.9696804796
 10
1.5805288462
 20
-49.1279336848
 10
1.6346153846
 20
-49.2781740694
 10
1.7107371795
 20
-49.4204016335
 10
1.8068910256
 20
-49.5526131719
 10
1.9250801282
 20
-49.6768118899
 10
2.0653044872
 20
-49.7909945822
 10
2.2255608974
 20
-49.897164454
 10
2.2255608974
 20
-49.897164454
 10
2.4499198718
 20
-50.0133503514
 10
2.7083333333
 20
-50.1135106078
 10
3.0028044872
 20
-50.1976452232
 10
3.3313301282
 20
-50.2657541976
 10
3.6959134615
 20
-50.319840736
 10
4.0945512821
 20
-50.3599048386
 10
4.5272435897
 20
-50.381940095
 10
4.9959935897
 20
-50.3899529155
 10
4.9959935897
 20
-50.3899529155
 10
5.46875
 20
-50.3839433002
 10
5.9054487179
 20
-50.3619080437
 10
6.3020833333
 20
-50.3278535566
 10
6.6606570513
 20
-50.2797766335
 10
6.9811698718
 20
-50.2176772745
 10
7.2636217949
 20
-50.1415554796
 10
7.5080128205
 20
-50.0514112489
 10
7.7143429487
 20
-49.9472445822
 10
7.8886217949
 20
-49.8330618899
 10
8.0408653846
 20
-49.7088631719
 10
8.1690705128
 20
-49.5786548386
 10
8.2752403846
 20
-49.4384304796
 10
8.3573717949
 20
-49.2921965053
 10
8.4154647436
 20
-49.1359465053
 10
8.4495192308
 20
-48.9736868899
 10
8.4615384615
 20
-48.8014112489
  0
LWPOLYLINE
  5
71
330
1F
100
AcDbEntity
  8
0
  6
Continuous
 62
     7
100
AcDbPolyline
 90
       12
 70
   128
 43
0.0
 10
39.1100347042
 20
-11.1605213296
 10
41.5499579627
 20
-12.5707777398
 10
41.5499579627
 20
-12.5707777398
 10
36.6040445012
 20
-21.1344796629
 10
36.6040445012
 20
-21.1344796629
 10
34.9854547576
 20
-20.198982868
 10
34.9854547576
 20
-20.198982868
 10
39.0479547576
 20
-13.1657296629
 10
39.0479547576
 20
-13.1657296629
 10
37.2851342447
 20
-12.1481014578
 10
37.2851342447
 20
-12.1481014578
 10
39.1100541165
 20
-11.1605213296
  0
LWPOLYLINE
  5
72
330
1F
100
AcDbEntity
  8
0
  6
Continuous
 62
     7
100
AcDbPolyline
 90
       22
 70
   128
 43
0.0
 10
47.992169857
 20
-16.0022681244
 10
49.6228008641
 20
-16.9437745347
 10
49.6228008641
 20
-16.9437745347
 10
46.4377047102
 20
-22.4585982526
 10
46.4377047102
 20
-22.4585982526
 10
47.2009258641
 20
-22.8993033808
 10
47.2009258641
 20
-22.8993033808
 10
46.3315348384
 20
-24.4057136373
 10
46.3315348384
 20
-24.4057136373
 10
45.5683136846
 20
-23.965008509
 10
45.5683136846
 20
-23.965008509
 10
44.5526886846
 20
-25.7238226116
 10
44.5526886846
 20
-25.7238226116
 10
42.9581374025
 20
-24.8023482526
 10
42.9581374025
 20
-24.8023482526
 10
43.9737624025
 20
-23.0435341501
 10
43.9737624025
 20
-23.0435341501
 10
40.2357816333
 20
-20.8840790219
 10
40.2357816333
 20
-20.8840790219
 10
41.105172659
 20
-19.3776687655
 10
41.105172659
 20
-19.3776687655
 10
47.9921918897
 20
-16.0022681244
  0
LWPOLYLINE
  5
73
330
1F
100
AcDbEntity
  8
0
  6
Continuous
 62
     7
100
AcDbPolyline
 90
        6
 70
   128
 43
0.0
 10
44.8431372643
 20
-21.5371238937
 10
46.5018072743
 20
-18.6665309449
 10
46.5018072743
 20
-18.6665309449
 10
42.8860220179
 20
-20.4073162014
 10
42.8860220179
 20
-20.4073162014
 10
44.8431534282
 20
-21.5371238937
  0
LWPOLYLINE
  5
74
330
1F
100
AcDbEntity
  8
0
  6
Continuous
 62
     7
100
AcDbPolyline
 90
       14
 70
   128
 43
0.0
 10
31.3030779362
 20
29.4918514578
 10
36.922090926
 20
32.7370437655
 10
36.922090926
 20
32.7370437655
 10
37.4168825926
 20
31.8816751757
 10
37.4168825926
 20
31.8816751757
 10
38.126017208
 20
21.7254251757
 10
38.126017208
 20
21.7254251757
 10
36.3591902849
 20
21.5992232526
 10
36.3591902849
 20
21.5992232526
 10
35.7742543875
 20
30.0347200475
 10
35.7742543875
 20
30.0347200475
 10
32.1865140029
 20
27.9614027398
 10
32.1865140029
 20
27.9614027398
 10
31.3031005413
 20
29.4918514578
  0
SPLINE
  5
75
330
1F
100
AcDbEntity
  8
0
  6
Continuous
 62
     7
370
    25
100
AcDbSpline
210
0.0
220
0.0
230
1.0
 70
     8
 71
     3
 72
    11
 73
     7
 74
     0
 42
0.00000001
 43
0.00000001
 40
0.0453540504636435
 40
0.0453540504636435
 40
0.0453540504636435
 40
0.0453540504636435
 40
0.2840155378477326
 40
0.5226770252318218
 40
0.7613385126159109
 40
1.0
 40
1.0
 40
1.0
 40
1.0
 10
-11.27137209571793
 20
104.7972239279467
 30
0.0
 10
-13.84597158183676
 20
104.6764057027045
 30
0.0
 10
-18.99968809103098
 20
104.3357647023496
 30
0.0
 10
-26.6446454505945
 20
103.4077691565663
 30
0.0
 10
-34.13986612040404
 20
101.8779450797445
 30
0.0
 10
-38.89547905463473
 20
100.3308811152139
 30
0.0
 10
-41.20937422142689
 20
99.37130661543895
 30
0.0
  0
SPLINE
  5
76
330
1F
100
AcDbEntity
  8
0
  6
Continuous
 62
     7
370
    25
100
AcDbSpline
210
0.0
220
0.0
230
1.0
 70
     8
 71
     3
 72
     8
 73
     4
 74
     0
 42
0.00000001
 43
0.00000001
 40
-0.1410595041521425
 40
-0.1410595041521425
 40
-0.1410595041521425
 40
-0.1410595041521425
 40
0.854192928317051
 40
0.854192928317051
 40
0.854192928317051
 40
0.854192928317051
 10
-6.435808297043241
 20
95.93501168352542
 30
0.0
 10
-8.027061616658248
 20
98.90023041204279
 30
0.0
 10
-9.637904309560131
 20
101.8550491835237
 30
0.0
 10
-11.27137209571792
 20
104.7972239279467
 30
0.0
  0
SPLINE
  5
78
330
1F
100
AcDbEntity
  8
0
  6
Continuous
 62
     7
370
    25
100
AcDbSpline
210
0.0
220
0.0
230
1.0
 70
     8
 71
     3
 72
     8
 73
     4
 74
     0
 42
0.00000001
 43
0.00000001
 40
0.1458046941954443
 40
0.1458046941954443
 40
0.1458046941954443
 40
0.1458046941954443
 40
1.141072742951062
 40
1.141072742951062
 40
1.141072742951062
 40
1.141072742951062
 10
11.27137240040801
 20
104.7972239853831
 30
0.0
 10
9.637905399653922
 20
101.8550487300477
 30
0.0
 10
8.027061647608354
 20
98.90023046971591
 30
0.0
 10
6.435808297043668
 20
95.9350116835254
 30
0.0
  0
SPLINE
  5
79
330
1F
100
AcDbEntity
  8
0
  6
Continuous
 62
     7
370
    25
100
AcDbSpline
210
0.0
220
0.0
230
1.0
 70
     8
 71
     3
 72
    11
 73
     7
 74
     0
 42
0.00000001
 43
0.00000001
 40
0.0
 40
0.0
 40
0.0
 40
0.0
 40
0.2386695799221638
 40
0.4773391598443275
 40
0.7160087397664913
 40
0.954678319688655
 40
0.954678319688655
 40
0.954678319688655
 40
0.954678319688655
 10
41.20937422142636
 20
99.3713066154389
 30
0.0
 10
38.89969026621212
 20
100.3291347218157
 30
0.0
 10
34.15792895565441
 20
101.8730595931898
 30
0.0
 10
26.65461983811345
 20
103.406523025269
 30
0.0
 10
19.00557603932411
 20
104.3352653583808
 30
0.0
 10
13.8478312809026
 20
104.6763187435402
 30
0.0
 10
11.27137240040802
 20
104.7972239853831
 30
0.0
  0
SPLINE
  5
7B
330
1F
100
AcDbEntity
  8
0
  6
Continuous
 62
     7
370
    25
100
AcDbSpline
210
0.0
220
0.0
230
1.0
 70
     8
 71
     3
 72
     9
 73
     5
 74
     0
 42
0.00000001
 43
0.00000001
 40
0.7365008839948006
 40
0.7365008839948006
 40
0.7365008839948006
 40
0.7365008839948006
 40
0.7990008839943912
 40
1.0
 40
1.0
 40
1.0
 40
1.0
 10
72.86985735629005
 20
78.6341295470119
 30
0.0
 10
72.60394829182684
 20
78.96326948495128
 30
0.0
 10
71.44664116894513
 20
80.32554244409687
 30
0.0
 10
70.15049438019422
 20
81.56980467332163
 30
0.0
 10
69.10647575587127
 20
82.4449156151202
 30
0.0
  0
SPLINE
  5
7D
330
1F
100
AcDbEntity
  8
0
  6
Continuous
 62
     7
370
    25
100
AcDbSpline
210
0.0
220
0.0
230
1.0
 70
     8
 71
     3
 72
    10
 73
     6
 74
     0
 42
0.00000001
 43
0.00000001
 40
0.0
 40
0.0
 40
0.0
 40
0.0
 40
0.125
 40
0.2318696413874438
 40
0.2631196413874435
 40
0.2631196413874435
 40
0.2631196413874435
 40
0.2631196413874435
 10
69.10647575587122
 20
-82.44491561512025
 30
0.0
 10
69.76192009794454
 20
-81.89551304496942
 30
0.0
 10
70.94111477513866
 20
-80.81784454924261
 30
0.0
 10
72.14482725705456
 20
-79.51319709398194
 30
0.0
 10
72.73776259354955
 20
-78.79762391837014
 30
0.0
 10
72.8698573562953
 20
-78.6341602592283
 30
0.0
  0
SPLINE
  5
7F
330
1F
100
AcDbEntity
  8
0
  6
Continuous
 62
     7
370
    25
100
AcDbSpline
210
0.0
220
0.0
230
1.0
 70
     8
 71
     3
 72
    11
 73
     7
 74
     0
 42
0.00000001
 43
0.00000001
 40
0.0453540516386417
 40
0.0453540516386417
 40
0.0453540516386417
 40
0.0453540516386417
 40
0.2840155387289813
 40
0.5226770258193209
 40
0.7613385129096604
 40
1.0
 40
1.0
 40
1.0
 40
1.0
 10
11.27137213384573
 20
-104.7972239261574
 30
0.0
 10
13.84597161671615
 20
-104.6764057005785
 30
0.0
 10
18.99968811935316
 20
-104.3357646996288
 30
0.0
 10
26.64464546929753
 20
-103.407769153365
 30
0.0
 10
34.13986612926812
 20
-101.8779450771019
 30
0.0
 10
38.89547905749535
 20
-100.3308811140274
 30
0.0
 10
41.20937422142661
 20
-99.37130661543885
 30
0.0
  0
SPLINE
  5
80
330
1F
100
AcDbEntity
  8
0
  6
Continuous
 62
     7
370
    25
100
AcDbSpline
210
0.0
220
0.0
230
1.0
 70
     8
 71
     3
 72
     8
 73
     4
 74
     0
 42
0.00000001
 43
0.00000001
 40
-0.1410651572154168
 40
-0.1410651572154168
 40
-0.1410651572154168
 40
-0.1410651572154168
 40
0.8541991388941697
 40
0.8541991388941697
 40
0.8541991388941697
 40
0.8541991388941697
 10
6.435808297043682
 20
-95.93501168352542
 30
0.0
 10
8.027061619289567
 20
-98.90023041694528
 30
0.0
 10
9.637904453490021
 20
-101.8550491166303
 30
0.0
 10
11.27137213384573
 20
-104.7972239261574
 30
0.0
  0
SPLINE
  5
82
330
1F
100
AcDbEntity
  8
0
  6
Continuous
 62
     7
370
    25
100
AcDbSpline
210
0.0
220
0.0
230
1.0
 70
     8
 71
     3
 72
     8
 73
     4
 74
     0
 42
0.00000001
 43
0.00000001
 40
0.1457811571827276
 40
0.1457811571827276
 40
0.1457811571827276
 40
0.1457811571827276
 40
1.141097149232443
 40
1.141097149232443
 40
1.141097149232443
 40
1.141097149232443
 10
-11.27137261216295
 20
-104.797223975446
 30
0.0
 10
-9.637906215361673
 20
-101.8550483494581
 30
0.0
 10
-8.027061662219568
 20
-98.90023049694398
 30
0.0
 10
-6.435808297043224
 20
-95.9350116835254
 30
0.0
  0
SPLINE
  5
83
330
1F
100
AcDbEntity
  8
0
  6
Continuous
 62
     7
370
    25
100
AcDbSpline
210
0.0
220
0.0
230
1.0
 70
     8
 71
     3
 72
    11
 73
     7
 74
     0
 42
0.00000001
 43
0.00000001
 40
0.0
 40
0.0
 40
0.0
 40
0.0
 40
0.2386695782918722
 40
0.4773391565837445
 40
0.7160087348756168
 40
0.954678313167489
 40
0.954678313167489
 40
0.954678313167489
 40
0.954678313167489
 10
-41.20937422142714
 20
-99.37130661543875
 30
0.0
 10
-38.89969028208022
 20
-100.3291347152353
 30
0.0
 10
-34.15792900476273
 20
-101.8730595785294
 30
0.0
 10
-26.65461994203006
 20
-103.4065230074678
 30
0.0
 10
-19.005576196596
 20
-104.335265343268
 30
0.0
 10
-13.84783147461394
 20
-104.6763187317311
 30
0.0
 10
-11.27137261216295
 20
-104.797223975446
 30
0.0
  0
SPLINE
  5
85
330
1F
100
AcDbEntity
  8
0
  6
Continuous
 62
     7
370
    25
100
AcDbSpline
210
0.0
220
0.0
230
1.0
 70
     8
 71
     3
 72
     9
 73
     5
 74
     0
 42
0.00000001
 43
0.00000001
 40
0.7365042591894659
 40
0.7365042591894659
 40
0.7365042591894659
 40
0.7365042591894659
 40
0.7990042591890848
 40
1.0
 40
1.0
 40
1.0
 40
1.0
 10
-72.86985735629084
 20
-78.63413076348336
 30
0.0
 10
-72.60387206572067
 20
-78.96336171711239
 30
0.0
 10
-71.44623279597054
 20
-80.32605132979597
 30
0.0
 10
-70.15046884055008
 20
-81.56982608100718
 30
0.0
 10
-69.10647575587173
 20
-82.4449156151202
 30
0.0
  0
SPLINE
  5
87
330
1F
100
AcDbEntity
  8
0
  6
Continuous
 62
     7
370
    25
100
AcDbSpline
210
0.0
220
0.0
230
1.0
 70
     8
 71
     3
 72
    10
 73
     6
 74
     0
 42
0.00000001
 43
0.00000001
 40
0.0
 40
0.0
 40
0.0
 40
0.0
 40
0.125
 40
0.231927177633507
 40
0.2631771776334819
 40
0.2631771776334819
 40
0.2631771776334819
 40
0.2631771776334819
 10
-69.10647575587171
 20
82.44491561512024
 30
0.0
 10
-69.76164748288988
 20
81.89574155470298
 30
0.0
 10
-70.94056955145227
 20
80.81835393752598
 30
0.0
 10
-72.14443391503355
 20
79.513660612067
 30
0.0
 10
-72.73772654006582
 20
78.79766851780978
 30
0.0
 10
-72.86985735629541
 20
78.634160393736
 30
0.0
  0
CIRCLE
  5
156
330
1F
100
AcDbEntity
  8
0
  6
Continuous
 62
     7
370
    25
100
AcDbCircle
 10
0.0
 20
0.0
 30
0.0
 40
58.00000000000001
  0
CIRCLE
  5
158
330
1F
100
AcDbEntity
  8
0
  6
Continuous
 62
     7
370
    25
100
AcDbCircle
 10
0.0
 20
0.0
 30
0.0
 40
66.00000000000001
  0
CIRCLE
  5
15B
330
1F
100
AcDbEntity
  8
0
  6
HIDDEN
 62
     7
370
    18
100
AcDbCircle
 10
0.0
 20
64.75
 30
0.0
 40
1.149999999999914
  0
CIRCLE
  5
15C
330
1F
100
AcDbEntity
  8
0
  6
HIDDEN
 62
     7
370
    18
100
AcDbCircle
 10
-64.75
 20
0.0
 30
0.0
 40
1.149999999999935
  0
CIRCLE
  5
15D
330
1F
100
AcDbEntity
  8
0
  6
HIDDEN
 62
     7
370
    18
100
AcDbCircle
 10
0.0
 20
-64.75
 30
0.0
 40
1.149999999999913
  0
CIRCLE
  5
15E
330
1F
100
AcDbEntity
  8
0
  6
HIDDEN
 62
     7
370
    18
100
AcDbCircle
 10
64.75
 20
0.0
 30
0.0
 40
1.149999999999977
  0
CIRCLE
  5
16C
330
1F
100
AcDbEntity
  8
0
  6
HIDDEN
 62
     7
370
    18
100
AcDbCircle
 10
64.75
 20
0.0
 30
0.0
 40
2.749999999999943
  0
CIRCLE
  5
16D
330
1F
100
AcDbEntity
  8
0
  6
HIDDEN
 62
     7
370
    18
100
AcDbCircle
 10
-64.75
 20
0.0
 30
0.0
 40
2.750000000000021
  0
CIRCLE
  5
16E
330
1F
100
AcDbEntity
  8
0
  6
HIDDEN
 62
     7
370
    18
100
AcDbCircle
 10
0.0
 20
-64.75
 30
0.0
 40
2.74999999999993
  0
CIRCLE
  5
16F
330
1F
100
AcDbEntity
  8
0
  6
HIDDEN
 62
     7
370
    18
100
AcDbCircle
 10
0.0
 20
64.75
 30
0.0
 40
2.749999999999972
  0
CIRCLE
  5
173
330
1F
100
AcDbEntity
  8
0
  6
HIDDEN
 62
     7
370
    18
100
AcDbCircle
 10
0.0
 20
64.75
 30
0.0
 40
1.750000000000014
  0
CIRCLE
  5
174
330
1F
100
AcDbEntity
  8
0
  6
HIDDEN
 62
     7
370
    18
100
AcDbCircle
 10
0.0
 20
-64.75
 30
0.0
 40
1.749999999999981
  0
CIRCLE
  5
175
330
1F
100
AcDbEntity
  8
0
  6
HIDDEN
 62
     7
370
    18
100
AcDbCircle
 10
-64.75
 20
0.0
 30
0.0
 40
1.749999999999993
  0
CIRCLE
  5
176
330
1F
100
AcDbEntity
  8
0
  6
HIDDEN
 62
     7
370
    18
100
AcDbCircle
 10
64.75
 20
0.0
 30
0.0
 40
1.75
  0
CIRCLE
  5
17B
330
1F
100
AcDbEntity
  8
0
  6
HIDDEN
 62
     7
370
    18
100
AcDbCircle
 10
-50.0
 20
-88.5
 30
0.0
 40
4.135000000000041
  0
CIRCLE
  5
17C
330
1F
100
AcDbEntity
  8
0
  6
HIDDEN
 62
     7
370
    18
100
AcDbCircle
 10
-50.0
 20
88.5
 30
0.0
 40
4.135000000000041
  0
CIRCLE
  5
17D
330
1F
100
AcDbEntity
  8
0
  6
HIDDEN
 62
     7
370
    18
100
AcDbCircle
 10
50.0
 20
-88.5
 30
0.0
 40
4.135000000000041
  0
CIRCLE
  5
17E
330
1F
100
AcDbEntity
  8
0
  6
HIDDEN
 62
     7
370
    18
100
AcDbCircle
 10
50.0
 20
88.5
 30
0.0
 40
4.135000000000041
  0
SPLINE
  5
17F
330
1F
100
AcDbEntity
  8
0
  6
HIDDEN
 62
     7
370
    18
100
AcDbSpline
210
0.0
220
0.0
230
1.0
 70
     8
 71
     3
 72
     8
 73
     4
 74
     0
 42
0.00000001
 43
0.00000001
 40
0.0
 40
0.0
 40
0.0
 40
0.0
 40
1.0
 40
1.0
 40
1.0
 40
1.0
 10
48.03844157728514
 20
-96.25579064662494
 30
0.0
 10
48.0001572708335
 20
-95.90133491667481
 30
0.0
 10
47.96558001421449
 20
-95.54573269571979
 30
0.0
 10
47.93566908380456
 20
-95.18868730532657
 30
0.0
  0
SPLINE
  5
180
330
1F
100
AcDbEntity
  8
0
  6
HIDDEN
 62
     7
370
    18
100
AcDbSpline
210
0.0
220
0.0
230
1.0
 70
     8
 71
     3
 72
     8
 73
     4
 74
     0
 42
0.00000001
 43
0.00000001
 40
0.0
 40
0.0
 40
0.0
 40
0.0
 40
1.0
 40
1.0
 40
1.0
 40
1.0
 10
56.79449405308966
 20
-90.1837014469734
 30
0.0
 10
57.08488183370877
 20
-90.39358477510157
 30
0.0
 10
57.37162529024971
 20
-90.60672021643967
 30
0.0
 10
57.65547360179674
 20
-90.82243922034722
 30
0.0
  0
SPLINE
  5
181
330
1F
100
AcDbEntity
  8
0
  6
HIDDEN
 62
     7
370
    18
100
AcDbSpline
210
0.0
220
0.0
230
1.0
 70
     8
 71
     3
 72
     8
 73
     4
 74
     0
 42
0.00000001
 43
0.00000001
 40
0.0
 40
0.0
 40
0.0
 40
0.0
 40
1.0
 40
1.0
 40
1.0
 40
1.0
 10
-56.79449405308877
 20
90.18370144697414
 30
0.0
 10
-57.08488183370785
 20
90.39358477510231
 30
0.0
 10
-57.37162529024878
 20
90.60672021644042
 30
0.0
 10
-57.65547360179578
 20
90.82243922034797
 30
0.0
  0
SPLINE
  5
182
330
1F
100
AcDbEntity
  8
0
  6
HIDDEN
 62
     7
370
    18
100
AcDbSpline
210
0.0
220
0.0
230
1.0
 70
     8
 71
     3
 72
     8
 73
     4
 74
     0
 42
0.00000001
 43
0.00000001
 40
0.0
 40
0.0
 40
0.0
 40
0.0
 40
1.0
 40
1.0
 40
1.0
 40
1.0
 10
-48.03844157728529
 20
96.25579064662516
 30
0.0
 10
-48.00015727083361
 20
95.90133491667504
 30
0.0
 10
-47.96558001421461
 20
95.54573269572006
 30
0.0
 10
-47.93566908380464
 20
95.18868730532684
 30
0.0
  0
SPLINE
  5
183
330
1F
100
AcDbEntity
  8
0
  6
HIDDEN
 62
     7
370
    18
100
AcDbSpline
210
0.0
220
0.0
230
1.0
 70
     8
 71
     3
 72
     8
 73
     4
 74
     0
 42
0.00000001
 43
0.00000001
 40
0.0
 40
0.0
 40
0.0
 40
0.0
 40
1.0
 40
1.0
 40
1.0
 40
1.0
 10
57.65547360179676
 20
90.82243922034714
 30
0.0
 10
57.37162529024974
 20
90.6067202164396
 30
0.0
 10
57.08488183370879
 20
90.39358477510153
 30
0.0
 10
56.79449405308969
 20
90.18370144697336
 30
0.0
  0
SPLINE
  5
184
330
1F
100
AcDbEntity
  8
0
  6
HIDDEN
 62
     7
370
    18
100
AcDbSpline
210
0.0
220
0.0
230
1.0
 70
     8
 71
     3
 72
     8
 73
     4
 74
     0
 42
0.00000001
 43
0.00000001
 40
0.0
 40
0.0
 40
0.0
 40
0.0
 40
1.0
 40
1.0
 40
1.0
 40
1.0
 10
47.9356690838045
 20
95.18868730532657
 30
0.0
 10
47.96558001421443
 20
95.54573269571979
 30
0.0
 10
48.00015727083342
 20
95.90133491667481
 30
0.0
 10
48.03844157728507
 20
96.25579064662493
 30
0.0
  0
SPLINE
  5
185
330
1F
100
AcDbEntity
  8
0
  6
HIDDEN
 62
     7
370
    18
100
AcDbSpline
210
0.0
220
0.0
230
1.0
 70
     8
 71
     3
 72
     8
 73
     4
 74
     0
 42
0.00000001
 43
0.00000001
 40
0.0
 40
0.0
 40
0.0
 40
0.0
 40
1.0
 40
1.0
 40
1.0
 40
1.0
 10
-47.93566908380458
 20
-95.18868730532688
 30
0.0
 10
-47.96558001421453
 20
-95.54573269572009
 30
0.0
 10
-48.00015727083357
 20
-95.90133491667505
 30
0.0
 10
-48.03844157728523
 20
-96.25579064662514
 30
0.0
  0
SPLINE
  5
186
330
1F
100
AcDbEntity
  8
0
  6
HIDDEN
 62
     7
370
    18
100
AcDbSpline
210
0.0
220
0.0
230
1.0
 70
     8
 71
     3
 72
     8
 73
     4
 74
     0
 42
0.00000001
 43
0.00000001
 40
0.0
 40
0.0
 40
0.0
 40
0.0
 40
1.0
 40
1.0
 40
1.0
 40
1.0
 10
-57.65547360179581
 20
-90.82243922034787
 30
0.0
 10
-57.37162529024882
 20
-90.60672021644034
 30
0.0
 10
-57.08488183370791
 20
-90.39358477510225
 30
0.0
 10
-56.79449405308885
 20
-90.1837014469741
 30
0.0
  0
CIRCLE
  5
187
330
1F
100
AcDbEntity
  8
0
  6
HIDDEN
 62
     7
370
    18
100
AcDbCircle
 10
-50.0
 20
-88.5
 30
0.0
 40
3.934999999999867
  0
CIRCLE
  5
188
330
1F
100
AcDbEntity
  8
0
  6
HIDDEN
 62
     7
370
    18
100
AcDbCircle
 10
-50.0
 20
88.5
 30
0.0
 40
3.934999999999967
  0
CIRCLE
  5
189
330
1F
100
AcDbEntity
  8
0
  6
HIDDEN
 62
     7
370
    18
100
AcDbCircle
 10
50.0
 20
88.5
 30
0.0
 40
3.934999999999917
  0
CIRCLE
  5
18A
330
1F
100
AcDbEntity
  8
0
  6
HIDDEN
 62
     7
370
    18
100
AcDbCircle
 10
50.0
 20
-88.5
 30
0.0
 40
3.934999999999931
  0
LINE
  5
1A3
330
1F
100
AcDbEntity
  8
0
  6
Continuous
 62
     7
370
    25
100
AcDbLine
 10
6.435808297
 20
95.9350116835
 30
0.0
 11
-6.435808297
 21
95.9350116835
 31
0.0
  0
LINE
  5
1A4
330
1F
100
AcDbEntity
  8
0
  6
Continuous
 62
     7
370
    25
100
AcDbLine
 10
72.8698573563
 20
78.634129547
 30
0.0
 11
72.8698573563
 21
-78.6341602592
 31
0.0
  0
LINE
  5
1A5
330
1F
100
AcDbEntity
  8
0
  6
Continuous
 62
     7
370
    25
100
AcDbLine
 10
-6.435808297
 20
-95.9350116835
 30
0.0
 11
6.435808297
 21
-95.9350116835
 31
0.0
  0
LINE
  5
1A6
330
1F
100
AcDbEntity
  8
0
  6
Continuous
 62
     7
370
    25
100
AcDbLine
 10
-72.8698573563
 20
78.6341603937
 30
0.0
 11
-72.8698573563
 21
-78.6341307635
 31
0.0
  0
LINE
  5
1A7
330
1F
100
AcDbEntity
  8
0
  6
Continuous
 62
     7
370
    25
100
AcDbLine
 10
27.5
 20
-15.8771324027
 30
0.0
 11
0.0
 21
-31.7542648054
 31
0.0
  0
LINE
  5
1A8
330
1F
100
AcDbEntity
  8
0
  6
Continuous
 62
     7
370
    25
100
AcDbLine
 10
27.5
 20
15.8771324027
 30
0.0
 11
27.5
 21
-15.8771324027
 31
0.0
  0
LINE
  5
1A9
330
1F
100
AcDbEntity
  8
0
  6
Continuous
 62
     7
370
    25
100
AcDbLine
 10
0.0
 20
31.7542648054
 30
0.0
 11
27.5
 21
15.8771324027
 31
0.0
  0
LINE
  5
1AA
330
1F
100
AcDbEntity
  8
0
  6
Continuous
 62
     7
370
    25
100
AcDbLine
 10
-27.5
 20
15.8771324027
 30
0.0
 11
0.0
 21
31.7542648054
 31
0.0
  0
LINE
  5
1AB
330
1F
100
AcDbEntity
  8
0
  6
Continuous
 62
     7
370
    25
100
AcDbLine
 10
-27.5
 20
-15.8771324027
 30
0.0
 11
-27.5
 21
15.8771324027
 31
0.0
  0
LINE
  5
1AC
330
1F
100
AcDbEntity
  8
0
  6
Continuous
 62
     7
370
    25
100
AcDbLine
 10
0.0
 20
-31.7542648054
 30
0.0
 11
-27.5
 21
-15.8771324027
 31
0.0
  0
LINE
  5
1AD
330
1F
100
AcDbEntity
  8
0
  6
Continuous
 62
     7
370
    25
100
AcDbLine
 10
0.0
 20
12.8
 30
0.0
 11
0.0
 21
32.9089653438
 31
0.0
  0
LINE
  5
1AE
330
1F
100
AcDbEntity
  8
0
  6
Continuous
 62
     7
370
    25
100
AcDbLine
 10
-12.8
 20
7.3900834456
 30
0.0
 11
0.0
 21
14.7801668913
 31
0.0
  0
LINE
  5
1AF
330
1F
100
AcDbEntity
  8
0
  6
Continuous
 62
     7
370
    25
100
AcDbLine
 10
-11.0851251684
 20
6.4
 30
0.0
 11
-28.5
 21
16.4544826719
 31
0.0
  0
LINE
  5
1B0
330
1F
100
AcDbEntity
  8
0
  6
Continuous
 62
     7
370
    25
100
AcDbLine
 10
-28.5
 20
-16.4544826719
 30
0.0
 11
-11.0851251684
 21
-6.4
 31
0.0
  0
LINE
  5
1B1
330
1F
100
AcDbEntity
  8
0
  6
Continuous
 62
     7
370
    25
100
AcDbLine
 10
0.0
 20
-14.7801668913
 30
0.0
 11
-12.8
 21
-7.3900834456
 31
0.0
  0
LINE
  5
1B2
330
1F
100
AcDbEntity
  8
0
  6
Continuous
 62
     7
370
    25
100
AcDbLine
 10
0.0
 20
-32.9089653438
 30
0.0
 11
0.0
 21
-12.8
 31
0.0
  0
LINE
  5
1B3
330
1F
100
AcDbEntity
  8
0
  6
Continuous
 62
     7
370
    25
100
AcDbLine
 10
11.0851251684
 20
6.4
 30
0.0
 11
28.5
 21
16.4544826719
 31
0.0
  0
LINE
  5
1B4
330
1F
100
AcDbEntity
  8
0
  6
Continuous
 62
     7
370
    25
100
AcDbLine
 10
0.0
 20
14.7801668913
 30
0.0
 11
12.8
 21
7.3900834456
 31
0.0
  0
LINE
  5
1B5
330
1F
100
AcDbEntity
  8
0
  6
Continuous
 62
     7
370
    25
100
AcDbLine
 10
28.5
 20
-16.4544826719
 30
0.0
 11
11.0851251684
 21
-6.4
 31
0.0
  0
LINE
  5
1B6
330
1F
100
AcDbEntity
  8
0
  6
Continuous
 62
     7
370
    25
100
AcDbLine
 10
12.8
 20
-7.3900834456
 30
0.0
 11
0.0
 21
-14.7801668913
 31
0.0
  0
LINE
  5
1B7
330
1F
100
AcDbEntity
  8
0
  6
Continuous
 62
     7
370
    25
100
AcDbLine
 10
12.8
 20
7.3900834456
 30
0.0
 11
12.8
 21
-7.3900834456
 31
0.0
  0
LINE
  5
1B8
330
1F
100
AcDbEntity
  8
0
  6
Continuous
 62
     7
370
    25
100
AcDbLine
 10
-12.8
 20
-7.3900834456
 30
0.0
 11
-12.8
 21
7.3900834456
 31
0.0
  0
LINE
  5
1B9
330
1F
100
AcDbEntity
  8
0
  6
Continuous
 62
     7
370
    25
100
AcDbLine
 10
-49.495358425
 20
32.2522789021
 30
0.0
 11
-45.9686469112
 21
37.1063808684
 31
0.0
  0
LINE
  5
1BA
330
1F
100
AcDbEntity
  8
0
  6
Continuous
 62
     7
370
    25
100
AcDbLine
 10
-54.3494603912
 20
35.7789904159
 30
0.0
 11
-49.495358425
 21
32.2522789021
 31
0.0
  0
LINE
  5
1BB
330
1F
100
AcDbEntity
  8
0
  6
Continuous
 62
     7
370
    25
100
AcDbLine
 10
-50.8227488775
 20
40.6330923821
 30
0.0
 11
-54.3494603912
 21
35.7789904159
 31
0.0
  0
LINE
  5
1BC
330
1F
100
AcDbEntity
  8
0
  6
Continuous
 62
     7
370
    25
100
AcDbLine
 10
-45.9686469112
 20
37.1063808684
 30
0.0
 11
-50.8227488775
 21
40.6330923821
 31
0.0
  0
LINE
  5
1BD
330
1F
100
AcDbEntity
  8
0
  6
Continuous
 62
     7
370
    25
100
AcDbLine
 10
45.9686469112
 20
37.1063808684
 30
0.0
 11
49.495358425
 21
32.2522789021
 31
0.0
  0
LINE
  5
1BE
330
1F
100
AcDbEntity
  8
0
  6
Continuous
 62
     7
370
    25
100
AcDbLine
 10
50.8227488775
 20
40.6330923821
 30
0.0
 11
45.9686469112
 21
37.1063808684
 31
0.0
  0
LINE
  5
1BF
330
1F
100
AcDbEntity
  8
0
  6
Continuous
 62
     7
370
    25
100
AcDbLine
 10
54.3494603912
 20
35.7789904159
 30
0.0
 11
50.8227488775
 21
40.6330923821
 31
0.0
  0
LINE
  5
1C0
330
1F
100
AcDbEntity
  8
0
  6
Continuous
 62
     7
370
    25
100
AcDbLine
 10
49.495358425
 20
32.2522789021
 30
0.0
 11
54.3494603912
 21
35.7789904159
 31
0.0
  0
LINE
  5
1C1
330
1F
100
AcDbEntity
  8
0
  6
Continuous
 62
     7
370
    25
100
AcDbLine
 10
29.4584590572
 20
-51.2074134279
 30
0.0
 11
24.1124199121
 21
-53.9313564263
 31
0.0
  0
LINE
  5
1C2
330
1F
100
AcDbEntity
  8
0
  6
Continuous
 62
     7
370
    25
100
AcDbLine
 10
32.1824020556
 20
-56.553452573
 30
0.0
 11
29.4584590572
 21
-51.2074134279
 31
0.0
  0
LINE
  5
1C3
330
1F
100
AcDbEntity
  8
0
  6
Continuous
 62
     7
370
    25
100
AcDbLine
 10
26.8363629105
 20
-59.2773955715
 30
0.0
 11
32.1824020556
 21
-56.553452573
 31
0.0
  0
LINE
  5
1C4
330
1F
100
AcDbEntity
  8
0
  6
Continuous
 62
     7
370
    25
100
AcDbLine
 10
24.1124199121
 20
-53.9313564263
 30
0.0
 11
26.8363629105
 21
-59.2773955715
 31
0.0
  0
LINE
  5
1C5
330
1F
100
AcDbEntity
  8
0
  6
Continuous
 62
     7
370
    25
100
AcDbLine
 10
49.495358425
 20
-32.2522789021
 30
0.0
 11
45.9686469112
 21
-37.1063808684
 31
0.0
  0
LINE
  5
1C6
330
1F
100
AcDbEntity
  8
0
  6
Continuous
 62
     7
370
    25
100
AcDbLine
 10
54.3494603913
 20
-35.7789904159
 30
0.0
 11
49.495358425
 21
-32.2522789021
 31
0.0
  0
LINE
  5
1C7
330
1F
100
AcDbEntity
  8
0
  6
Continuous
 62
     7
370
    25
100
AcDbLine
 10
50.8227488775
 20
-40.6330923821
 30
0.0
 11
54.3494603913
 21
-35.7789904159
 31
0.0
  0
LINE
  5
1C8
330
1F
100
AcDbEntity
  8
0
  6
Continuous
 62
     7
370
    25
100
AcDbLine
 10
45.9686469112
 20
-37.1063808684
 30
0.0
 11
50.8227488775
 21
-40.6330923821
 31
0.0
  0
LINE
  5
1C9
330
1F
100
AcDbEntity
  8
0
  6
Continuous
 62
     7
370
    25
100
AcDbLine
 10
-45.9686469112
 20
-37.1063808684
 30
0.0
 11
-49.495358425
 21
-32.2522789021
 31
0.0
  0
LINE
  5
1CA
330
1F
100
AcDbEntity
  8
0
  6
Continuous
 62
     7
370
    25
100
AcDbLine
 10
-50.8227488775
 20
-40.6330923821
 30
0.0
 11
-45.9686469112
 21
-37.1063808684
 31
0.0
  0
LINE
  5
1CB
330
1F
100
AcDbEntity
  8
0
  6
Continuous
 62
     7
370
    25
100
AcDbLine
 10
-54.3494603912
 20
-35.7789904159
 30
0.0
 11
-50.8227488775
 21
-40.6330923821
 31
0.0
  0
LINE
  5
1CC
330
1F
100
AcDbEntity
  8
0
  6
Continuous
 62
     7
370
    25
100
AcDbLine
 10
-49.495358425
 20
-32.2522789021
 30
0.0
 11
-54.3494603912
 21
-35.7789904159
 31
0.0
  0
LINE
  5
1CD
330
1F
100
AcDbEntity
  8
0
  6
Continuous
 62
     7
370
    25
100
AcDbLine
 10
24.1124199121
 20
53.9313564263
 30
0.0
 11
29.4584590572
 21
51.2074134279
 31
0.0
  0
LINE
  5
1CE
330
1F
100
AcDbEntity
  8
0
  6
Continuous
 62
     7
370
    25
100
AcDbLine
 10
26.8363629105
 20
59.2773955715
 30
0.0
 11
24.1124199121
 21
53.9313564263
 31
0.0
  0
LINE
  5
1CF
330
1F
100
AcDbEntity
  8
0
  6
Continuous
 62
     7
370
    25
100
AcDbLine
 10
32.1824020556
 20
56.553452573
 30
0.0
 11
26.8363629105
 21
59.2773955715
 31
0.0
  0
LINE
  5
1D0
330
1F
100
AcDbEntity
  8
0
  6
Continuous
 62
     7
370
    25
100
AcDbLine
 10
29.4584590572
 20
51.2074134279
 30
0.0
 11
32.1824020556
 21
56.553452573
 31
0.0
  0
LINE
  5
1D1
330
1F
100
AcDbEntity
  8
0
  6
Continuous
 62
     7
370
    25
100
AcDbLine
 10
-29.4584590572
 20
51.2074134279
 30
0.0
 11
-24.1124199121
 21
53.9313564263
 31
0.0
  0
LINE
  5
1D2
330
1F
100
AcDbEntity
  8
0
  6
Continuous
 62
     7
370
    25
100
AcDbLine
 10
-32.1824020556
 20
56.553452573
 30
0.0
 11
-29.4584590572
 21
51.2074134279
 31
0.0
  0
LINE
  5
1D3
330
1F
100
AcDbEntity
  8
0
  6
Continuous
 62
     7
370
    25
100
AcDbLine
 10
-26.8363629105
 20
59.2773955715
 30
0.0
 11
-32.1824020556
 21
56.553452573
 31
0.0
  0
LINE
  5
1D4
330
1F
100
AcDbEntity
  8
0
  6
Continuous
 62
     7
370
    25
100
AcDbLine
 10
-24.1124199121
 20
53.9313564263
 30
0.0
 11
-26.8363629105
 21
59.2773955715
 31
0.0
  0
LINE
  5
1D5
330
1F
100
AcDbEntity
  8
0
  6
Continuous
 62
     7
370
    25
100
AcDbLine
 10
-39.5979797464
 20
-43.8406204336
 30
0.0
 11
-43.8406204336
 21
-39.5979797464
 31
0.0
  0
LINE
  5
1D6
330
1F
100
AcDbEntity
  8
0
  6
Continuous
 62
     7
370
    25
100
AcDbLine
 10
-43.8406204336
 20
-48.0832611207
 30
0.0
 11
-39.5979797464
 21
-43.8406204336
 31
0.0
  0
LINE
  5
1D7
330
1F
100
AcDbEntity
  8
0
  6
Continuous
 62
     7
370
    25
100
AcDbLine
 10
-48.0832611207
 20
-43.8406204336
 30
0.0
 11
-43.8406204336
 21
-48.0832611207
 31
0.0
  0
LINE
  5
1D8
330
1F
100
AcDbEntity
  8
0
  6
Continuous
 62
     7
370
    25
100
AcDbLine
 10
-43.8406204336
 20
-39.5979797464
 30
0.0
 11
-48.0832611207
 21
-43.8406204336
 31
0.0
  0
LINE
  5
1D9
330
1F
100
AcDbEntity
  8
0
  6
Continuous
 62
     7
370
    25
100
AcDbLine
 10
-53.9313564263
 20
24.1124199121
 30
0.0
 11
-51.2074134279
 21
29.4584590572
 31
0.0
  0
LINE
  5
1DA
330
1F
100
AcDbEntity
  8
0
  6
Continuous
 62
     7
370
    25
100
AcDbLine
 10
-59.2773955715
 20
26.8363629105
 30
0.0
 11
-53.9313564263
 21
24.1124199121
 31
0.0
  0
LINE
  5
1DB
330
1F
100
AcDbEntity
  8
0
  6
Continuous
 62
     7
370
    25
100
AcDbLine
 10
-56.553452573
 20
32.1824020556
 30
0.0
 11
-59.2773955715
 21
26.8363629105
 31
0.0
  0
LINE
  5
1DC
330
1F
100
AcDbEntity
  8
0
  6
Continuous
 62
     7
370
    25
100
AcDbLine
 10
-51.2074134279
 20
29.4584590572
 30
0.0
 11
-56.553452573
 21
32.1824020556
 31
0.0
  0
LINE
  5
1DD
330
1F
100
AcDbEntity
  8
0
  6
Continuous
 62
     7
370
    25
100
AcDbLine
 10
-24.1124199121
 20
-53.9313564263
 30
0.0
 11
-29.4584590572
 21
-51.2074134279
 31
0.0
  0
LINE
  5
1DE
330
1F
100
AcDbEntity
  8
0
  6
Continuous
 62
     7
370
    25
100
AcDbLine
 10
-26.8363629105
 20
-59.2773955715
 30
0.0
 11
-24.1124199121
 21
-53.9313564263
 31
0.0
  0
LINE
  5
1DF
330
1F
100
AcDbEntity
  8
0
  6
Continuous
 62
     7
370
    25
100
AcDbLine
 10
-32.1824020556
 20
-56.553452573
 30
0.0
 11
-26.8363629105
 21
-59.2773955715
 31
0.0
  0
LINE
  5
1E0
330
1F
100
AcDbEntity
  8
0
  6
Continuous
 62
     7
370
    25
100
AcDbLine
 10
-29.4584590572
 20
-51.2074134279
 30
0.0
 11
-32.1824020556
 21
-56.553452573
 31
0.0
  0
LINE
  5
1E1
330
1F
100
AcDbEntity
  8
0
  6
Continuous
 62
     7
370
    25
100
AcDbLine
 10
-37.1063808684
 20
45.9686469112
 30
0.0
 11
-32.2522789021
 21
49.495358425
 31
0.0
  0
LINE
  5
1E2
330
1F
100
AcDbEntity
  8
0
  6
Continuous
 62
     7
370
    25
100
AcDbLine
 10
-40.6330923821
 20
50.8227488775
 30
0.0
 11
-37.1063808684
 21
45.9686469112
 31
0.0
  0
LINE
  5
1E3
330
1F
100
AcDbEntity
  8
0
  6
Continuous
 62
     7
370
    25
100
AcDbLine
 10
-35.7789904159
 20
54.3494603912
 30
0.0
 11
-40.6330923821
 21
50.8227488775
 31
0.0
  0
LINE
  5
1E4
330
1F
100
AcDbEntity
  8
0
  6
Continuous
 62
     7
370
    25
100
AcDbLine
 10
-32.2522789021
 20
49.495358425
 30
0.0
 11
-35.7789904159
 21
54.3494603912
 31
0.0
  0
LINE
  5
1E5
330
1F
100
AcDbEntity
  8
0
  6
Continuous
 62
     7
370
    25
100
AcDbLine
 10
-43.8406204336
 20
39.5979797464
 30
0.0
 11
-39.5979797464
 21
43.8406204336
 31
0.0
  0
LINE
  5
1E6
330
1F
100
AcDbEntity
  8
0
  6
Continuous
 62
     7
370
    25
100
AcDbLine
 10
-48.0832611207
 20
43.8406204336
 30
0.0
 11
-43.8406204336
 21
39.5979797464
 31
0.0
  0
LINE
  5
1E7
330
1F
100
AcDbEntity
  8
0
  6
Continuous
 62
     7
370
    25
100
AcDbLine
 10
-43.8406204336
 20
48.0832611207
 30
0.0
 11
-48.0832611207
 21
43.8406204336
 31
0.0
  0
LINE
  5
1E8
330
1F
100
AcDbEntity
  8
0
  6
Continuous
 62
     7
370
    25
100
AcDbLine
 10
-39.5979797464
 20
43.8406204336
 30
0.0
 11
-43.8406204336
 21
48.0832611207
 31
0.0
  0
LINE
  5
1E9
330
1F
100
AcDbEntity
  8
0
  6
Continuous
 62
     7
370
    25
100
AcDbLine
 10
-51.2074134279
 20
-29.4584590572
 30
0.0
 11
-53.9313564263
 21
-24.1124199121
 31
0.0
  0
LINE
  5
1EA
330
1F
100
AcDbEntity
  8
0
  6
Continuous
 62
     7
370
    25
100
AcDbLine
 10
-56.553452573
 20
-32.1824020556
 30
0.0
 11
-51.2074134279
 21
-29.4584590572
 31
0.0
  0
LINE
  5
1EB
330
1F
100
AcDbEntity
  8
0
  6
Continuous
 62
     7
370
    25
100
AcDbLine
 10
-59.2773955715
 20
-26.8363629105
 30
0.0
 11
-56.553452573
 21
-32.1824020556
 31
0.0
  0
LINE
  5
1EC
330
1F
100
AcDbEntity
  8
0
  6
Continuous
 62
     7
370
    25
100
AcDbLine
 10
-53.9313564263
 20
-24.1124199121
 30
0.0
 11
-59.2773955715
 21
-26.8363629105
 31
0.0
  0
LINE
  5
1ED
330
1F
100
AcDbEntity
  8
0
  6
Continuous
 62
     7
370
    25
100
AcDbLine
 10
37.1063808684
 20
-45.9686469112
 30
0.0
 11
32.2522789021
 21
-49.495358425
 31
0.0
  0
LINE
  5
1EE
330
1F
100
AcDbEntity
  8
0
  6
Continuous
 62
     7
370
    25
100
AcDbLine
 10
40.6330923821
 20
-50.8227488775
 30
0.0
 11
37.1063808684
 21
-45.9686469112
 31
0.0
  0
LINE
  5
1EF
330
1F
100
AcDbEntity
  8
0
  6
Continuous
 62
     7
370
    25
100
AcDbLine
 10
35.7789904159
 20
-54.3494603912
 30
0.0
 11
40.6330923821
 21
-50.8227488775
 31
0.0
  0
LINE
  5
1F0
330
1F
100
AcDbEntity
  8
0
  6
Continuous
 62
     7
370
    25
100
AcDbLine
 10
32.2522789021
 20
-49.495358425
 30
0.0
 11
35.7789904159
 21
-54.3494603912
 31
0.0
  0
LINE
  5
1F1
330
1F
100
AcDbEntity
  8
0
  6
Continuous
 62
     7
370
    25
100
AcDbLine
 10
-57.0393854445
 20
15.3788331192
 30
0.0
 11
-55.1852834783
 21
21.085172217
 31
0.0
  0
LINE
  5
1F2
330
1F
100
AcDbEntity
  8
0
  6
Continuous
 62
     7
370
    25
100
AcDbLine
 10
-62.7457245423
 20
17.2329350855
 30
0.0
 11
-57.0393854445
 21
15.3788331192
 31
0.0
  0
LINE
  5
1F3
330
1F
100
AcDbEntity
  8
0
  6
Continuous
 62
     7
370
    25
100
AcDbLine
 10
-60.8916225761
 20
22.9392741833
 30
0.0
 11
-62.7457245423
 21
17.2329350855
 31
0.0
  0
LINE
  5
1F4
330
1F
100
AcDbEntity
  8
0
  6
Continuous
 62
     7
370
    25
100
AcDbLine
 10
-55.1852834783
 20
21.085172217
 30
0.0
 11
-60.8916225761
 21
22.9392741833
 31
0.0
  0
LINE
  5
1F5
330
1F
100
AcDbEntity
  8
0
  6
Continuous
 62
     7
370
    25
100
AcDbLine
 10
-55.1852834783
 20
-21.085172217
 30
0.0
 11
-57.0393854445
 21
-15.3788331192
 31
0.0
  0
LINE
  5
1F6
330
1F
100
AcDbEntity
  8
0
  6
Continuous
 62
     7
370
    25
100
AcDbLine
 10
-60.8916225761
 20
-22.9392741833
 30
0.0
 11
-55.1852834783
 21
-21.085172217
 31
0.0
  0
LINE
  5
1F7
330
1F
100
AcDbEntity
  8
0
  6
Continuous
 62
     7
370
    25
100
AcDbLine
 10
-62.7457245423
 20
-17.2329350855
 30
0.0
 11
-60.8916225761
 21
-22.9392741833
 31
0.0
  0
LINE
  5
1F8
330
1F
100
AcDbEntity
  8
0
  6
Continuous
 62
     7
370
    25
100
AcDbLine
 10
-57.0393854445
 20
-15.3788331192
 30
0.0
 11
-62.7457245423
 21
-17.2329350855
 31
0.0
  0
LINE
  5
1F9
330
1F
100
AcDbEntity
  8
0
  6
Continuous
 62
     7
370
    25
100
AcDbLine
 10
-21.085172217
 20
55.1852834783
 30
0.0
 11
-15.3788331192
 21
57.0393854445
 31
0.0
  0
LINE
  5
1FA
330
1F
100
AcDbEntity
  8
0
  6
Continuous
 62
     7
370
    25
100
AcDbLine
 10
-22.9392741833
 20
60.8916225761
 30
0.0
 11
-21.085172217
 21
55.1852834783
 31
0.0
  0
LINE
  5
1FB
330
1F
100
AcDbEntity
  8
0
  6
Continuous
 62
     7
370
    25
100
AcDbLine
 10
-17.2329350855
 20
62.7457245423
 30
0.0
 11
-22.9392741833
 21
60.8916225761
 31
0.0
  0
LINE
  5
1FC
330
1F
100
AcDbEntity
  8
0
  6
Continuous
 62
     7
370
    25
100
AcDbLine
 10
-15.3788331192
 20
57.0393854445
 30
0.0
 11
-17.2329350855
 21
62.7457245423
 31
0.0
  0
LINE
  5
1FD
330
1F
100
AcDbEntity
  8
0
  6
Continuous
 62
     7
370
    25
100
AcDbLine
 10
-15.3788331192
 20
-57.0393854445
 30
0.0
 11
-21.085172217
 21
-55.1852834783
 31
0.0
  0
LINE
  5
1FE
330
1F
100
AcDbEntity
  8
0
  6
Continuous
 62
     7
370
    25
100
AcDbLine
 10
-17.2329350855
 20
-62.7457245423
 30
0.0
 11
-15.3788331192
 21
-57.0393854445
 31
0.0
  0
LINE
  5
1FF
330
1F
100
AcDbEntity
  8
0
  6
Continuous
 62
     7
370
    25
100
AcDbLine
 10
-22.9392741833
 20
-60.8916225761
 30
0.0
 11
-17.2329350855
 21
-62.7457245423
 31
0.0
  0
LINE
  5
200
330
1F
100
AcDbEntity
  8
0
  6
Continuous
 62
     7
370
    25
100
AcDbLine
 10
-21.085172217
 20
-55.1852834783
 30
0.0
 11
-22.9392741833
 21
-60.8916225761
 31
0.0
  0
LINE
  5
201
330
1F
100
AcDbEntity
  8
0
  6
Continuous
 62
     7
370
    25
100
AcDbLine
 10
39.5979797464
 20
43.8406204336
 30
0.0
 11
43.8406204336
 21
39.5979797464
 31
0.0
  0
LINE
  5
202
330
1F
100
AcDbEntity
  8
0
  6
Continuous
 62
     7
370
    25
100
AcDbLine
 10
43.8406204336
 20
48.0832611207
 30
0.0
 11
39.5979797464
 21
43.8406204336
 31
0.0
  0
LINE
  5
203
330
1F
100
AcDbEntity
  8
0
  6
Continuous
 62
     7
370
    25
100
AcDbLine
 10
48.0832611207
 20
43.8406204336
 30
0.0
 11
43.8406204336
 21
48.0832611207
 31
0.0
  0
LINE
  5
204
330
1F
100
AcDbEntity
  8
0
  6
Continuous
 62
     7
370
    25
100
AcDbLine
 10
43.8406204336
 20
39.5979797464
 30
0.0
 11
48.0832611207
 21
43.8406204336
 31
0.0
  0
LINE
  5
205
330
1F
100
AcDbEntity
  8
0
  6
Continuous
 62
     7
370
    25
100
AcDbLine
 10
21.085172217
 20
-55.1852834783
 30
0.0
 11
15.3788331192
 21
-57.0393854445
 31
0.0
  0
LINE
  5
206
330
1F
100
AcDbEntity
  8
0
  6
Continuous
 62
     7
370
    25
100
AcDbLine
 10
22.9392741833
 20
-60.8916225761
 30
0.0
 11
21.085172217
 21
-55.1852834783
 31
0.0
  0
LINE
  5
207
330
1F
100
AcDbEntity
  8
0
  6
Continuous
 62
     7
370
    25
100
AcDbLine
 10
17.2329350855
 20
-62.7457245423
 30
0.0
 11
22.9392741833
 21
-60.8916225761
 31
0.0
  0
LINE
  5
208
330
1F
100
AcDbEntity
  8
0
  6
Continuous
 62
     7
370
    25
100
AcDbLine
 10
15.3788331192
 20
-57.0393854445
 30
0.0
 11
17.2329350855
 21
-62.7457245423
 31
0.0
  0
LINE
  5
209
330
1F
100
AcDbEntity
  8
0
  6
Continuous
 62
     7
370
    25
100
AcDbLine
 10
-32.2522789021
 20
-49.495358425
 30
0.0
 11
-37.1063808684
 21
-45.9686469112
 31
0.0
  0
LINE
  5
20A
330
1F
100
AcDbEntity
  8
0
  6
Continuous
 62
     7
370
    25
100
AcDbLine
 10
-35.7789904159
 20
-54.3494603912
 30
0.0
 11
-32.2522789021
 21
-49.495358425
 31
0.0
  0
LINE
  5
20B
330
1F
100
AcDbEntity
  8
0
  6
Continuous
 62
     7
370
    25
100
AcDbLine
 10
-40.6330923821
 20
-50.8227488775
 30
0.0
 11
-35.7789904159
 21
-54.3494603912
 31
0.0
  0
LINE
  5
20C
330
1F
100
AcDbEntity
  8
0
  6
Continuous
 62
     7
370
    25
100
AcDbLine
 10
-37.1063808684
 20
-45.9686469112
 30
0.0
 11
-40.6330923821
 21
-50.8227488775
 31
0.0
  0
LINE
  5
20D
330
1F
100
AcDbEntity
  8
0
  6
Continuous
 62
     7
370
    25
100
AcDbLine
 10
32.2522789021
 20
49.495358425
 30
0.0
 11
37.1063808684
 21
45.9686469112
 31
0.0
  0
LINE
  5
20E
330
1F
100
AcDbEntity
  8
0
  6
Continuous
 62
     7
370
    25
100
AcDbLine
 10
35.7789904159
 20
54.3494603912
 30
0.0
 11
32.2522789021
 21
49.495358425
 31
0.0
  0
LINE
  5
20F
330
1F
100
AcDbEntity
  8
0
  6
Continuous
 62
     7
370
    25
100
AcDbLine
 10
40.6330923821
 20
50.8227488775
 30
0.0
 11
35.7789904159
 21
54.3494603912
 31
0.0
  0
LINE
  5
210
330
1F
100
AcDbEntity
  8
0
  6
Continuous
 62
     7
370
    25
100
AcDbLine
 10
37.1063808684
 20
45.9686469112
 30
0.0
 11
40.6330923821
 21
50.8227488775
 31
0.0
  0
LINE
  5
211
330
1F
100
AcDbEntity
  8
0
  6
Continuous
 62
     7
370
    25
100
AcDbLine
 10
43.8406204336
 20
-39.5979797464
 30
0.0
 11
39.5979797464
 21
-43.8406204336
 31
0.0
  0
LINE
  5
212
330
1F
100
AcDbEntity
  8
0
  6
Continuous
 62
     7
370
    25
100
AcDbLine
 10
48.0832611207
 20
-43.8406204336
 30
0.0
 11
43.8406204336
 21
-39.5979797464
 31
0.0
  0
LINE
  5
213
330
1F
100
AcDbEntity
  8
0
  6
Continuous
 62
     7
370
    25
100
AcDbLine
 10
43.8406204336
 20
-48.0832611207
 30
0.0
 11
48.0832611207
 21
-43.8406204336
 31
0.0
  0
LINE
  5
214
330
1F
100
AcDbEntity
  8
0
  6
Continuous
 62
     7
370
    25
100
AcDbLine
 10
39.5979797464
 20
-43.8406204336
 30
0.0
 11
43.8406204336
 21
-48.0832611207
 31
0.0
  0
LINE
  5
215
330
1F
100
AcDbEntity
  8
0
  6
Continuous
 62
     7
370
    25
100
AcDbLine
 10
15.3788331192
 20
57.0393854445
 30
0.0
 11
21.085172217
 21
55.1852834783
 31
0.0
  0
LINE
  5
216
330
1F
100
AcDbEntity
  8
0
  6
Continuous
 62
     7
370
    25
100
AcDbLine
 10
17.2329350855
 20
62.7457245423
 30
0.0
 11
15.3788331192
 21
57.0393854445
 31
0.0
  0
LINE
  5
217
330
1F
100
AcDbEntity
  8
0
  6
Continuous
 62
     7
370
    25
100
AcDbLine
 10
22.9392741833
 20
60.8916225761
 30
0.0
 11
17.2329350855
 21
62.7457245423
 31
0.0
  0
LINE
  5
218
330
1F
100
AcDbEntity
  8
0
  6
Continuous
 62
     7
370
    25
100
AcDbLine
 10
21.085172217
 20
55.1852834783
 30
0.0
 11
22.9392741833
 21
60.8916225761
 31
0.0
  0
LINE
  5
219
330
1F
100
AcDbEntity
  8
0
  6
Continuous
 62
     7
370
    25
100
AcDbLine
 10
-6.2665684156
 20
-58.7429154902
 30
0.0
 11
-12.1926984592
 21
-57.8043087
 31
0.0
  0
LINE
  5
21A
330
1F
100
AcDbEntity
  8
0
  6
Continuous
 62
     7
370
    25
100
AcDbLine
 10
-7.2051752058
 20
-64.6690455338
 30
0.0
 11
-6.2665684156
 21
-58.7429154902
 31
0.0
  0
LINE
  5
21B
330
1F
100
AcDbEntity
  8
0
  6
Continuous
 62
     7
370
    25
100
AcDbLine
 10
-13.1313052494
 20
-63.7304387436
 30
0.0
 11
-7.2051752058
 21
-64.6690455338
 31
0.0
  0
LINE
  5
21C
330
1F
100
AcDbEntity
  8
0
  6
Continuous
 62
     7
370
    25
100
AcDbLine
 10
-12.1926984592
 20
-57.8043087
 30
0.0
 11
-13.1313052494
 21
-63.7304387436
 31
0.0
  0
LINE
  5
21D
330
1F
100
AcDbEntity
  8
0
  6
Continuous
 62
     7
370
    25
100
AcDbLine
 10
-12.1926984592
 20
57.8043087
 30
0.0
 11
-6.2665684156
 21
58.7429154902
 31
0.0
  0
LINE
  5
21E
330
1F
100
AcDbEntity
  8
0
  6
Continuous
 62
     7
370
    25
100
AcDbLine
 10
-13.1313052494
 20
63.7304387436
 30
0.0
 11
-12.1926984592
 21
57.8043087
 31
0.0
  0
LINE
  5
21F
330
1F
100
AcDbEntity
  8
0
  6
Continuous
 62
     7
370
    25
100
AcDbLine
 10
-7.2051752058
 20
64.6690455338
 30
0.0
 11
-13.1313052494
 21
63.7304387436
 31
0.0
  0
LINE
  5
220
330
1F
100
AcDbEntity
  8
0
  6
Continuous
 62
     7
370
    25
100
AcDbLine
 10
-6.2665684156
 20
58.7429154902
 30
0.0
 11
-7.2051752058
 21
64.6690455338
 31
0.0
  0
LINE
  5
221
330
1F
100
AcDbEntity
  8
0
  6
Continuous
 62
     7
370
    25
100
AcDbLine
 10
51.2074134279
 20
29.4584590572
 30
0.0
 11
53.9313564263
 21
24.1124199121
 31
0.0
  0
LINE
  5
222
330
1F
100
AcDbEntity
  8
0
  6
Continuous
 62
     7
370
    25
100
AcDbLine
 10
56.553452573
 20
32.1824020556
 30
0.0
 11
51.2074134279
 21
29.4584590572
 31
0.0
  0
LINE
  5
223
330
1F
100
AcDbEntity
  8
0
  6
Continuous
 62
     7
370
    25
100
AcDbLine
 10
59.2773955715
 20
26.8363629105
 30
0.0
 11
56.553452573
 21
32.1824020556
 31
0.0
  0
LINE
  5
224
330
1F
100
AcDbEntity
  8
0
  6
Continuous
 62
     7
370
    25
100
AcDbLine
 10
53.9313564263
 20
24.1124199121
 30
0.0
 11
59.2773955715
 21
26.8363629105
 31
0.0
  0
LINE
  5
225
330
1F
100
AcDbEntity
  8
0
  6
Continuous
 62
     7
370
    25
100
AcDbLine
 10
12.1926984592
 20
-57.8043087
 30
0.0
 11
6.2665684156
 21
-58.7429154902
 31
0.0
  0
LINE
  5
226
330
1F
100
AcDbEntity
  8
0
  6
Continuous
 62
     7
370
    25
100
AcDbLine
 10
13.1313052494
 20
-63.7304387436
 30
0.0
 11
12.1926984592
 21
-57.8043087
 31
0.0
  0
LINE
  5
227
330
1F
100
AcDbEntity
  8
0
  6
Continuous
 62
     7
370
    25
100
AcDbLine
 10
7.2051752058
 20
-64.6690455338
 30
0.0
 11
13.1313052494
 21
-63.7304387436
 31
0.0
  0
LINE
  5
228
330
1F
100
AcDbEntity
  8
0
  6
Continuous
 62
     7
370
    25
100
AcDbLine
 10
6.2665684156
 20
-58.7429154902
 30
0.0
 11
7.2051752058
 21
-64.6690455338
 31
0.0
  0
LINE
  5
229
330
1F
100
AcDbEntity
  8
0
  6
Continuous
 62
     7
370
    25
100
AcDbLine
 10
6.2665684156
 20
58.7429154902
 30
0.0
 11
12.1926984592
 21
57.8043087
 31
0.0
  0
LINE
  5
22A
330
1F
100
AcDbEntity
  8
0
  6
Continuous
 62
     7
370
    25
100
AcDbLine
 10
7.2051752058
 20
64.6690455338
 30
0.0
 11
6.2665684156
 21
58.7429154902
 31
0.0
  0
LINE
  5
22B
330
1F
100
AcDbEntity
  8
0
  6
Continuous
 62
     7
370
    25
100
AcDbLine
 10
13.1313052494
 20
63.7304387436
 30
0.0
 11
7.2051752058
 21
64.6690455338
 31
0.0
  0
LINE
  5
22C
330
1F
100
AcDbEntity
  8
0
  6
Continuous
 62
     7
370
    25
100
AcDbLine
 10
12.1926984592
 20
57.8043087
 30
0.0
 11
13.1313052494
 21
63.7304387436
 31
0.0
  0
LINE
  5
22D
330
1F
100
AcDbEntity
  8
0
  6
Continuous
 62
     7
370
    25
100
AcDbLine
 10
57.8043087
 20
12.1926984592
 30
0.0
 11
58.7429154902
 21
6.2665684156
 31
0.0
  0
LINE
  5
22E
330
1F
100
AcDbEntity
  8
0
  6
Continuous
 62
     7
370
    25
100
AcDbLine
 10
64.6690455338
 20
7.2051752058
 30
0.0
 11
63.7304387436
 21
13.1313052494
 31
0.0
  0
LINE
  5
22F
330
1F
100
AcDbEntity
  8
0
  6
Continuous
 62
     7
370
    25
100
AcDbLine
 10
58.7429154902
 20
6.2665684156
 30
0.0
 11
64.6690455338
 21
7.2051752058
 31
0.0
  0
LINE
  5
230
330
1F
100
AcDbEntity
  8
0
  6
Continuous
 62
     7
370
    25
100
AcDbLine
 10
63.7304387436
 20
13.1313052494
 30
0.0
 11
57.8043087
 21
12.1926984592
 31
0.0
  0
LINE
  5
231
330
1F
100
AcDbEntity
  8
0
  6
Continuous
 62
     7
370
    25
100
AcDbLine
 10
55.1852834783
 20
21.085172217
 30
0.0
 11
57.0393854445
 21
15.3788331192
 31
0.0
  0
LINE
  5
232
330
1F
100
AcDbEntity
  8
0
  6
Continuous
 62
     7
370
    25
100
AcDbLine
 10
60.8916225761
 20
22.9392741833
 30
0.0
 11
55.1852834783
 21
21.085172217
 31
0.0
  0
LINE
  5
233
330
1F
100
AcDbEntity
  8
0
  6
Continuous
 62
     7
370
    25
100
AcDbLine
 10
62.7457245423
 20
17.2329350855
 30
0.0
 11
60.8916225761
 21
22.9392741833
 31
0.0
  0
LINE
  5
234
330
1F
100
AcDbEntity
  8
0
  6
Continuous
 62
     7
370
    25
100
AcDbLine
 10
57.0393854445
 20
15.3788331192
 30
0.0
 11
62.7457245423
 21
17.2329350855
 31
0.0
  0
LINE
  5
235
330
1F
100
AcDbEntity
  8
0
  6
Continuous
 62
     7
370
    25
100
AcDbLine
 10
58.7429154902
 20
-6.2665684156
 30
0.0
 11
57.8043087
 21
-12.1926984592
 31
0.0
  0
LINE
  5
236
330
1F
100
AcDbEntity
  8
0
  6
Continuous
 62
     7
370
    25
100
AcDbLine
 10
64.6690455338
 20
-7.2051752058
 30
0.0
 11
58.7429154902
 21
-6.2665684156
 31
0.0
  0
LINE
  5
237
330
1F
100
AcDbEntity
  8
0
  6
Continuous
 62
     7
370
    25
100
AcDbLine
 10
63.7304387436
 20
-13.1313052494
 30
0.0
 11
64.6690455338
 21
-7.2051752058
 31
0.0
  0
LINE
  5
238
330
1F
100
AcDbEntity
  8
0
  6
Continuous
 62
     7
370
    25
100
AcDbLine
 10
57.8043087
 20
-12.1926984592
 30
0.0
 11
63.7304387436
 21
-13.1313052494
 31
0.0
  0
LINE
  5
239
330
1F
100
AcDbEntity
  8
0
  6
Continuous
 62
     7
370
    25
100
AcDbLine
 10
57.0393854445
 20
-15.3788331192
 30
0.0
 11
55.1852834783
 21
-21.085172217
 31
0.0
  0
LINE
  5
23A
330
1F
100
AcDbEntity
  8
0
  6
Continuous
 62
     7
370
    25
100
AcDbLine
 10
62.7457245423
 20
-17.2329350855
 30
0.0
 11
57.0393854445
 21
-15.3788331192
 31
0.0
  0
LINE
  5
23B
330
1F
100
AcDbEntity
  8
0
  6
Continuous
 62
     7
370
    25
100
AcDbLine
 10
60.8916225761
 20
-22.9392741833
 30
0.0
 11
62.7457245423
 21
-17.2329350855
 31
0.0
  0
LINE
  5
23C
330
1F
100
AcDbEntity
  8
0
  6
Continuous
 62
     7
370
    25
100
AcDbLine
 10
55.1852834783
 20
-21.085172217
 30
0.0
 11
60.8916225761
 21
-22.9392741833
 31
0.0
  0
LINE
  5
23D
330
1F
100
AcDbEntity
  8
0
  6
Continuous
 62
     7
370
    25
100
AcDbLine
 10
53.9313564263
 20
-24.1124199121
 30
0.0
 11
51.2074134279
 21
-29.4584590572
 31
0.0
  0
LINE
  5
23E
330
1F
100
AcDbEntity
  8
0
  6
Continuous
 62
     7
370
    25
100
AcDbLine
 10
59.2773955715
 20
-26.8363629105
 30
0.0
 11
53.9313564263
 21
-24.1124199121
 31
0.0
  0
LINE
  5
23F
330
1F
100
AcDbEntity
  8
0
  6
Continuous
 62
     7
370
    25
100
AcDbLine
 10
56.553452573
 20
-32.1824020556
 30
0.0
 11
59.2773955715
 21
-26.8363629105
 31
0.0
  0
LINE
  5
240
330
1F
100
AcDbEntity
  8
0
  6
Continuous
 62
     7
370
    25
100
AcDbLine
 10
51.2074134279
 20
-29.4584590572
 30
0.0
 11
56.553452573
 21
-32.1824020556
 31
0.0
  0
LINE
  5
241
330
1F
100
AcDbEntity
  8
0
  6
Continuous
 62
     7
370
    25
100
AcDbLine
 10
-59.0
 20
-3.0
 30
0.0
 11
-59.0
 21
3.0
 31
0.0
  0
LINE
  5
242
330
1F
100
AcDbEntity
  8
0
  6
Continuous
 62
     7
370
    25
100
AcDbLine
 10
-65.0
 20
-3.0
 30
0.0
 11
-59.0
 21
-3.0
 31
0.0
  0
LINE
  5
243
330
1F
100
AcDbEntity
  8
0
  6
Continuous
 62
     7
370
    25
100
AcDbLine
 10
-65.0
 20
3.0
 30
0.0
 11
-65.0
 21
-3.0
 31
0.0
  0
LINE
  5
244
330
1F
100
AcDbEntity
  8
0
  6
Continuous
 62
     7
370
    25
100
AcDbLine
 10
-59.0
 20
3.0
 30
0.0
 11
-65.0
 21
3.0
 31
0.0
  0
LINE
  5
245
330
1F
100
AcDbEntity
  8
0
  6
Continuous
 62
     7
370
    25
100
AcDbLine
 10
-57.8043087
 20
-12.1926984592
 30
0.0
 11
-58.7429154902
 21
-6.2665684156
 31
0.0
  0
LINE
  5
246
330
1F
100
AcDbEntity
  8
0
  6
Continuous
 62
     7
370
    25
100
AcDbLine
 10
-63.7304387436
 20
-13.1313052494
 30
0.0
 11
-57.8043087
 21
-12.1926984592
 31
0.0
  0
LINE
  5
247
330
1F
100
AcDbEntity
  8
0
  6
Continuous
 62
     7
370
    25
100
AcDbLine
 10
-64.6690455338
 20
-7.2051752058
 30
0.0
 11
-63.7304387436
 21
-13.1313052494
 31
0.0
  0
LINE
  5
248
330
1F
100
AcDbEntity
  8
0
  6
Continuous
 62
     7
370
    25
100
AcDbLine
 10
-58.7429154902
 20
-6.2665684156
 30
0.0
 11
-64.6690455338
 21
-7.2051752058
 31
0.0
  0
LINE
  5
249
330
1F
100
AcDbEntity
  8
0
  6
Continuous
 62
     7
370
    25
100
AcDbLine
 10
-3.0
 20
59.0
 30
0.0
 11
3.0
 21
59.0
 31
0.0
  0
LINE
  5
24A
330
1F
100
AcDbEntity
  8
0
  6
Continuous
 62
     7
370
    25
100
AcDbLine
 10
-3.0
 20
65.0
 30
0.0
 11
-3.0
 21
59.0
 31
0.0
  0
LINE
  5
24B
330
1F
100
AcDbEntity
  8
0
  6
Continuous
 62
     7
370
    25
100
AcDbLine
 10
3.0
 20
65.0
 30
0.0
 11
-3.0
 21
65.0
 31
0.0
  0
LINE
  5
24C
330
1F
100
AcDbEntity
  8
0
  6
Continuous
 62
     7
370
    25
100
AcDbLine
 10
3.0
 20
59.0
 30
0.0
 11
3.0
 21
65.0
 31
0.0
  0
LINE
  5
24D
330
1F
100
AcDbEntity
  8
0
  6
Continuous
 62
     7
370
    25
100
AcDbLine
 10
-58.7429154902
 20
6.2665684156
 30
0.0
 11
-57.8043087
 21
12.1926984592
 31
0.0
  0
LINE
  5
24E
330
1F
100
AcDbEntity
  8
0
  6
Continuous
 62
     7
370
    25
100
AcDbLine
 10
-63.7304387436
 20
13.1313052494
 30
0.0
 11
-64.6690455338
 21
7.2051752058
 31
0.0
  0
LINE
  5
24F
330
1F
100
AcDbEntity
  8
0
  6
Continuous
 62
     7
370
    25
100
AcDbLine
 10
-57.8043087
 20
12.1926984592
 30
0.0
 11
-63.7304387436
 21
13.1313052494
 31
0.0
  0
LINE
  5
250
330
1F
100
AcDbEntity
  8
0
  6
Continuous
 62
     7
370
    25
100
AcDbLine
 10
-64.6690455338
 20
7.2051752058
 30
0.0
 11
-58.7429154902
 21
6.2665684156
 31
0.0
  0
LINE
  5
251
330
1F
100
AcDbEntity
  8
0
  6
Continuous
 62
     7
370
    25
100
AcDbLine
 10
3.0
 20
-59.0
 30
0.0
 11
-3.0
 21
-59.0
 31
0.0
  0
LINE
  5
252
330
1F
100
AcDbEntity
  8
0
  6
Continuous
 62
     7
370
    25
100
AcDbLine
 10
3.0
 20
-65.0
 30
0.0
 11
3.0
 21
-59.0
 31
0.0
  0
LINE
  5
253
330
1F
100
AcDbEntity
  8
0
  6
Continuous
 62
     7
370
    25
100
AcDbLine
 10
-3.0
 20
-59.0
 30
0.0
 11
-3.0
 21
-65.0
 31
0.0
  0
LINE
  5
254
330
1F
100
AcDbEntity
  8
0
  6
Continuous
 62
     7
370
    25
100
AcDbLine
 10
-3.0
 20
-65.0
 30
0.0
 11
3.0
 21
-65.0
 31
0.0
  0
LINE
  5
255
330
1F
100
AcDbEntity
  8
0
  6
Continuous
 62
     7
370
    25
100
AcDbLine
 10
59.0
 20
3.0
 30
0.0
 11
59.0
 21
-3.0
 31
0.0
  0
LINE
  5
256
330
1F
100
AcDbEntity
  8
0
  6
Continuous
 62
     7
370
    25
100
AcDbLine
 10
65.0
 20
-3.0
 30
0.0
 11
65.0
 21
3.0
 31
0.0
  0
LINE
  5
257
330
1F
100
AcDbEntity
  8
0
  6
Continuous
 62
     7
370
    25
100
AcDbLine
 10
59.0
 20
-3.0
 30
0.0
 11
65.0
 21
-3.0
 31
0.0
  0
LINE
  5
258
330
1F
100
AcDbEntity
  8
0
  6
Continuous
 62
     7
370
    25
100
AcDbLine
 10
65.0
 20
3.0
 30
0.0
 11
59.0
 21
3.0
 31
0.0
  0
LINE
  5
259
330
1F
100
AcDbEntity
  8
0
  6
HIDDEN
 62
     7
370
    18
100
AcDbLine
 10
5.0550330794
 20
57.7792924893
 30
0.0
 11
5.7522790213
 21
65.7488500741
 31
0.0
  0
LINE
  5
25A
330
1F
100
AcDbEntity
  8
0
  6
HIDDEN
 62
     7
370
    18
100
AcDbLine
 10
19.8371683129
 20
54.5021720056
 30
0.0
 11
22.5733294595
 21
62.0197129719
 31
0.0
  0
LINE
  5
25B
330
1F
100
AcDbEntity
  8
0
  6
HIDDEN
 62
     7
370
    18
100
AcDbLine
 10
0.0
 20
-32.9089653438
 30
0.0
 11
28.5
 21
-16.4544826719
 31
0.0
  0
LINE
  5
25C
330
1F
100
AcDbEntity
  8
0
  6
HIDDEN
 62
     7
370
    18
100
AcDbLine
 10
0.0
 20
32.9089653438
 30
0.0
 11
-28.5
 21
16.4544826719
 31
0.0
  0
LINE
  5
25D
330
1F
100
AcDbEntity
  8
0
  6
HIDDEN
 62
     7
370
    18
100
AcDbLine
 10
-28.5
 20
-16.4544826719
 30
0.0
 11
0.0
 21
-32.9089653438
 31
0.0
  0
LINE
  5
25E
330
1F
100
AcDbEntity
  8
0
  6
HIDDEN
 62
     7
370
    18
100
AcDbLine
 10
28.5
 20
16.4544826719
 30
0.0
 11
0.0
 21
32.9089653438
 31
0.0
  0
LINE
  5
25F
330
1F
100
AcDbEntity
  8
0
  6
HIDDEN
 62
     7
370
    18
100
AcDbLine
 10
28.5
 20
-16.4544826719
 30
0.0
 11
28.5
 21
16.4544826719
 31
0.0
  0
LINE
  5
260
330
1F
100
AcDbEntity
  8
0
  6
HIDDEN
 62
     7
370
    18
100
AcDbLine
 10
-28.5
 20
16.4544826719
 30
0.0
 11
-28.5
 21
-16.4544826719
 31
0.0
  0
LINE
  5
261
330
1F
100
AcDbEntity
  8
0
  6
HIDDEN
 62
     7
370
    18
100
AcDbLine
 10
0.0
 20
-16.2551239348
 30
0.0
 11
-14.0773502692
 21
-8.1275619674
 31
0.0
  0
LINE
  5
262
330
1F
100
AcDbEntity
  8
0
  6
HIDDEN
 62
     7
370
    18
100
AcDbLine
 10
-16.7568421935
 20
-9.6745673512
 30
0.0
 11
0.0
 21
-19.3491347024
 31
0.0
  0
LINE
  5
263
330
1F
100
AcDbEntity
  8
0
  6
HIDDEN
 62
     7
370
    18
100
AcDbLine
 10
14.0773502692
 20
-8.1275619674
 30
0.0
 11
0.0
 21
-16.2551239348
 31
0.0
  0
LINE
  5
264
330
1F
100
AcDbEntity
  8
0
  6
HIDDEN
 62
     7
370
    18
100
AcDbLine
 10
0.0
 20
-19.3491347024
 30
0.0
 11
16.7568421935
 21
-9.6745673512
 31
0.0
  0
LINE
  5
265
330
1F
100
AcDbEntity
  8
0
  6
HIDDEN
 62
     7
370
    18
100
AcDbLine
 10
0.0
 20
16.2551239348
 30
0.0
 11
14.0773502692
 21
8.1275619674
 31
0.0
  0
LINE
  5
266
330
1F
100
AcDbEntity
  8
0
  6
HIDDEN
 62
     7
370
    18
100
AcDbLine
 10
16.7568421935
 20
9.6745673512
 30
0.0
 11
0.0
 21
19.3491347024
 31
0.0
  0
LINE
  5
267
330
1F
100
AcDbEntity
  8
0
  6
HIDDEN
 62
     7
370
    18
100
AcDbLine
 10
-14.0773502692
 20
8.1275619674
 30
0.0
 11
0.0
 21
16.2551239348
 31
0.0
  0
LINE
  5
268
330
1F
100
AcDbEntity
  8
0
  6
HIDDEN
 62
     7
370
    18
100
AcDbLine
 10
0.0
 20
19.3491347024
 30
0.0
 11
-16.7568421935
 21
9.6745673512
 31
0.0
  0
LINE
  5
269
330
1F
100
AcDbEntity
  8
0
  6
HIDDEN
 62
     7
370
    18
100
AcDbLine
 10
14.0773502692
 20
8.1275619674
 30
0.0
 11
14.0773502692
 21
-8.1275619674
 31
0.0
  0
LINE
  5
26A
330
1F
100
AcDbEntity
  8
0
  6
HIDDEN
 62
     7
370
    18
100
AcDbLine
 10
16.7568421935
 20
-9.6745673512
 30
0.0
 11
16.7568421935
 21
9.6745673512
 31
0.0
  0
LINE
  5
26B
330
1F
100
AcDbEntity
  8
0
  6
HIDDEN
 62
     7
370
    18
100
AcDbLine
 10
-14.0773502692
 20
-8.1275619674
 30
0.0
 11
-14.0773502692
 21
8.1275619674
 31
0.0
  0
LINE
  5
26C
330
1F
100
AcDbEntity
  8
0
  6
HIDDEN
 62
     7
370
    18
100
AcDbLine
 10
-16.7568421935
 20
9.6745673512
 30
0.0
 11
-16.7568421935
 21
-9.6745673512
 31
0.0
  0
ARC
  5
26D
330
1F
100
AcDbEntity
  8
0
  6
Continuous
 62
     7
370
    25
100
AcDbCircle
 10
0.0
 20
0.0
 30
0.0
 40
107.577270378929
100
AcDbArc
 50
50.0297929131
 51
67.4761689218
  0
ARC
  5
26E
330
1F
100
AcDbEntity
  8
0
  6
Continuous
 62
     7
370
    25
100
AcDbCircle
 10
0.0
 20
0.0
 30
0.0
 40
107.577270378929
100
AcDbArc
 50
292.5238310782
 51
309.9702070869
  0
ARC
  5
26F
330
1F
100
AcDbEntity
  8
0
  6
Continuous
 62
     7
370
    25
100
AcDbCircle
 10
0.0
 20
0.0
 30
0.0
 40
107.577270378931
100
AcDbArc
 50
230.0297929131
 51
247.4761689218
  0
ARC
  5
270
330
1F
100
AcDbEntity
  8
0
  6
Continuous
 62
     7
370
    25
100
AcDbCircle
 10
0.0
 20
0.0
 30
0.0
 40
107.577270378929
100
AcDbArc
 50
112.5238310782
 51
129.9702070869
  0
ARC
  5
271
330
1F
100
AcDbEntity
  8
0
  6
Continuous
 62
     7
370
    25
100
AcDbCircle
 10
0.0
 20
0.0
 30
0.0
 40
12.79999999999998
100
AcDbArc
 50
210.0
 51
180.0
  0
ARC
  5
272
330
1F
100
AcDbEntity
  8
0
  6
Continuous
 62
     7
370
    25
100
AcDbCircle
 10
64.75
 20
0.0
 30
0.0
 40
0.7499999999999957
100
AcDbArc
 50
289.4712206345
 51
70.5287793655
  0
ARC
  5
273
330
1F
100
AcDbEntity
  8
0
  6
Continuous
 62
     7
370
    25
100
AcDbCircle
 10
0.0
 20
-64.75
 30
0.0
 40
0.7499999999999922
100
AcDbArc
 50
199.4712206345
 51
340.5287793655
  0
ARC
  5
274
330
1F
100
AcDbEntity
  8
0
  6
Continuous
 62
     7
370
    25
100
AcDbCircle
 10
-64.75
 20
0.0
 30
0.0
 40
0.7499999999999948
100
AcDbArc
 50
109.4712206345
 51
250.5287793655
  0
ARC
  5
275
330
1F
100
AcDbEntity
  8
0
  6
Continuous
 62
     7
370
    25
100
AcDbCircle
 10
0.0
 20
64.75
 30
0.0
 40
0.7499999999999908
100
AcDbArc
 50
19.4712206345
 51
160.5287793655
  0
ARC
  5
276
330
1F
100
AcDbEntity
  8
0
  6
HIDDEN
 62
     7
370
    18
100
AcDbCircle
 10
50.0
 20
88.5
 30
0.0
 40
11.00000000000004
100
AcDbArc
 50
120.4905489678
 51
0.5790082627
  0
ARC
  5
277
330
1F
100
AcDbEntity
  8
0
  6
HIDDEN
 62
     7
370
    18
100
AcDbCircle
 10
50.0
 20
-88.5
 30
0.0
 40
10.99999999999999
100
AcDbArc
 50
359.4209917373
 51
239.5094510322
  0
ARC
  5
278
330
1F
100
AcDbEntity
  8
0
  6
HIDDEN
 62
     7
370
    18
100
AcDbCircle
 10
-50.0
 20
88.5
 30
0.0
 40
11.00000000000004
100
AcDbArc
 50
179.4209917373
 51
59.5094510322
  0
ARC
  5
279
330
1F
100
AcDbEntity
  8
0
  6
HIDDEN
 62
     7
370
    18
100
AcDbCircle
 10
-50.0
 20
-88.5
 30
0.0
 40
11.00000000000011
100
AcDbArc
 50
300.4905489678
 51
180.5790082627
  0
ARC
  5
27A
330
1F
100
AcDbEntity
  8
0
  6
HIDDEN
 62
     7
370
    18
100
AcDbCircle
 10
50.0
 20
-88.5
 30
0.0
 40
7.999999999999998
100
AcDbArc
 50
343.1237890286
 51
255.806653741
  0
ARC
  5
27B
330
1F
100
AcDbEntity
  8
0
  6
HIDDEN
 62
     7
370
    18
100
AcDbCircle
 10
-50.0
 20
88.5
 30
0.0
 40
8.000000000000016
100
AcDbArc
 50
163.1237890286
 51
75.806653741
  0
ARC
  5
27C
330
1F
100
AcDbEntity
  8
0
  6
HIDDEN
 62
     7
370
    18
100
AcDbCircle
 10
50.0
 20
88.5
 30
0.0
 40
7.999999999999969
100
AcDbArc
 50
104.193346259
 51
16.8762109714
  0
ARC
  5
27D
330
1F
100
AcDbEntity
  8
0
  6
HIDDEN
 62
     7
370
    18
100
AcDbCircle
 10
-50.0
 20
-88.5
 30
0.0
 40
7.999999999999982
100
AcDbArc
 50
284.193346259
 51
196.8762109714
  0
ARC
  5
27E
330
1F
100
AcDbEntity
  8
0
  6
HIDDEN
 62
     7
370
    18
100
AcDbCircle
 10
0.0
 20
0.0
 30
0.0
 40
106.5772703789241
100
AcDbArc
 50
57.7987324761
 51
63.2708247544
  0
ARC
  5
27F
330
1F
100
AcDbEntity
  8
0
  6
HIDDEN
 62
     7
370
    18
100
AcDbCircle
 10
50.0
 20
88.5
 30
0.0
 40
6.999999999999955
100
AcDbArc
 50
107.1518058629
 51
13.9177513675
  0
ARC
  5
280
330
1F
100
AcDbEntity
  8
0
  6
HIDDEN
 62
     7
370
    18
100
AcDbCircle
 10
0.0
 20
0.0
 30
0.0
 40
106.5772703789078
100
AcDbArc
 50
296.7291752456
 51
302.2012675239
  0
ARC
  5
281
330
1F
100
AcDbEntity
  8
0
  6
HIDDEN
 62
     7
370
    18
100
AcDbCircle
 10
50.0
 20
-88.5
 30
0.0
 40
6.999999999999927
100
AcDbArc
 50
346.0822486325
 51
252.8481941371
  0
ARC
  5
282
330
1F
100
AcDbEntity
  8
0
  6
HIDDEN
 62
     7
370
    18
100
AcDbCircle
 10
-50.0
 20
-88.5
 30
0.0
 40
7.000000000000019
100
AcDbArc
 50
287.1518058629
 51
193.9177513675
  0
ARC
  5
283
330
1F
100
AcDbEntity
  8
0
  6
HIDDEN
 62
     7
370
    18
100
AcDbCircle
 10
0.0
 20
0.0
 30
0.0
 40
106.5772703789195
100
AcDbArc
 50
237.7987324761
 51
243.2708247544
  0
ARC
  5
284
330
1F
100
AcDbEntity
  8
0
  6
HIDDEN
 62
     7
370
    18
100
AcDbCircle
 10
-50.0
 20
88.5
 30
0.0
 40
6.999999999999966
100
AcDbArc
 50
166.0822486325
 51
72.8481941371
  0
ARC
  5
285
330
1F
100
AcDbEntity
  8
0
  6
HIDDEN
 62
     7
370
    18
100
AcDbCircle
 10
0.0
 20
0.0
 30
0.0
 40
106.5772703789075
100
AcDbArc
 50
116.7291752456
 51
122.2012675239
  0
MTEXT
  5
287
330
1F
100
AcDbEntity
  8
0
  6
Continuous
 62
     7
100
AcDbMText
 10
-72.8698573563
 20
-105.8167903671
 30
0.0
 40
4.83362
 41
0.0
 71
     1
 72
     1
  1
SOLIDWORKS Educational Product.
  7
SLDTEXTSTYLE0
 73
     1
 44
1.0
  0
MTEXT
  5
288
330
1F
100
AcDbEntity
  8
0
  6
Continuous
 62
     7
100
AcDbMText
 10
-72.8698573563
 20
-113.0672203671
 30
0.0
 40
4.83362
 41
0.0
 71
     1
 72
     1
  1
For Instructional Use Only.
  7
SLDTEXTSTYLE0
 73
     1
 44
1.0
  0
ENDSEC
  0
SECTION
  2
OBJECTS
  0
DICTIONARY
  5
C
330
0
100
AcDbDictionary
281
     1
  3
ACAD_GROUP
350
D
  3
ACAD_LAYOUT
350
1A
  3
ACAD_MLINESTYLE
350
17
  3
ACAD_PLOTSETTINGS
350
19
  3
ACAD_PLOTSTYLENAME
350
E
  3
ACAD_SCALELIST
350
47
  3
DWGPROPS
350
289
  0
DICTIONARY
  5
D
102
{ACAD_REACTORS
330
C
102
}
330
C
100
AcDbDictionary
281
     1
  0
DICTIONARY
  5
1A
102
{ACAD_REACTORS
330
C
102
}
330
C
100
AcDbDictionary
281
     1
  3
Layout1
350
1E
  3
Layout2
350
26
  3
Model
350
22
  0
DICTIONARY
  5
17
102
{ACAD_REACTORS
330
C
102
}
330
C
100
AcDbDictionary
281
     1
  3
Standard
350
18
  0
DICTIONARY
  5
19
102
{ACAD_REACTORS
330
C
102
}
330
C
100
AcDbDictionary
281
     1
  0
ACDBDICTIONARYWDFLT
  5
E
102
{ACAD_REACTORS
330
C
102
}
330
C
100
AcDbDictionary
281
     1
  3
Normal
350
F
100
AcDbDictionaryWithDefault
340
F
  0
DICTIONARY
  5
47
102
{ACAD_REACTORS
330
C
102
}
330
C
100
AcDbDictionary
281
     1
  3
A0
350
48
  3
A1
350
49
  3
A2
350
4A
  3
A3
350
4B
  3
A4
350
4C
  3
A5
350
4D
  3
A6
350
4E
  3
A7
350
4F
  3
A8
350
50
  3
A9
350
51
  3
B0
350
52
  3
B1
350
53
  3
B2
350
54
  3
B3
350
55
  3
B4
350
56
  3
B5
350
57
  3
B6
350
58
  0
XRECORD
  5
289
102
{ACAD_REACTORS
330
C
102
}
330
C
100
AcDbXrecord
280
     1
  1
DWGPROPS COOKIE
  2

  3

  4

  6

  7

  8
xmiao
  9

300
=
301
=
302
=
303
=
304
=
305
=
306
=
307
=
308
=
309
=
 40
0.0
 41
2460157.12047022
 42
2460157.120498518
  1

 90
        0
  0
LAYOUT
  5
1E
102
{ACAD_REACTORS
330
1A
102
}
330
1A
100
AcDbPlotSettings
  1

  2
none_device
  4

  6

 40
0.0
 41
0.0
 42
0.0
 43
0.0
 44
0.0
 45
0.0
 46
0.0
 47
0.0
 48
0.0
 49
0.0
140
0.0
141
0.0
142
1.0
143
1.0
 70
   688
 72
     1
 73
     0
 74
     5
  7

 75
    16
147
1.0
148
0.0
149
0.0
100
AcDbLayout
  1
Layout1
 70
     1
 71
     1
 10
0.0
 20
0.0
 11
420.0
 21
297.0
 12
0.0
 22
0.0
 32
0.0
 14
1.0000000000E+20
 24
1.0000000000E+20
 34
1.0000000000E+20
 15
-1.0000000000E+20
 25
-1.0000000000E+20
 35
-1.0000000000E+20
146
0.0
 13
0.0
 23
0.0
 33
0.0
 16
1.0
 26
0.0
 36
0.0
 17
0.0
 27
1.0
 37
0.0
 76
     0
330
1B
  0
LAYOUT
  5
26
102
{ACAD_REACTORS
330
1A
102
}
330
1A
100
AcDbPlotSettings
  1

  2
none_device
  4

  6

 40
0.0
 41
0.0
 42
0.0
 43
0.0
 44
0.0
 45
0.0
 46
0.0
 47
0.0
 48
0.0
 49
0.0
140
0.0
141
0.0
142
1.0
143
1.0
 70
   688
 72
     1
 73
     0
 74
     5
  7

 75
    16
147
1.0
148
0.0
149
0.0
100
AcDbLayout
  1
Layout2
 70
     1
 71
     2
 10
0.0
 20
0.0
 11
0.0
 21
0.0
 12
0.0
 22
0.0
 32
0.0
 14
0.0
 24
0.0
 34
0.0
 15
0.0
 25
0.0
 35
0.0
146
0.0
 13
0.0
 23
0.0
 33
0.0
 16
1.0
 26
0.0
 36
0.0
 17
0.0
 27
1.0
 37
0.0
 76
     0
330
23
  0
LAYOUT
  5
22
102
{ACAD_REACTORS
330
1A
102
}
330
1A
100
AcDbPlotSettings
  1

  2
none_device
  4
ANSI_A_(11.00_x_8.50_Inches)
  6

 40
6.35
 41
19.05
 42
6.35000508
 43
19.05000254
 44
279.4
 45
215.9
 46
133.34999746
 47
88.8999987249
 48
0.0
 49
0.0
140
0.0
141
0.0
142
0.0401489643
143
1.0
 70
  1696
 72
     0
 73
     0
 74
     0
  7

 75
     0
147
0.0179189148
148
-1300.4909072572
149
0.0
100
AcDbLayout
  1
Model
 70
     1
 71
     0
 10
0.0
 20
0.0
 11
420.0
 21
297.0
 12
0.0
 22
0.0
 32
0.0
 14
-72.8698573563
 24
-104.7972239754
 34
0.0
 15
72.8698573563
 25
104.7972239854
 35
0.0
146
0.0
 13
0.0
 23
0.0
 33
0.0
 16
1.0
 26
0.0
 36
0.0
 17
0.0
 27
1.0
 37
0.0
 76
     0
330
1F
331
29
  0
MLINESTYLE
  5
18
102
{ACAD_REACTORS
330
17
102
}
330
17
100
AcDbMlineStyle
  2
Standard
 70
     0
  3

 62
   256
 51
90.0
 52
90.0
 71
     2
 49
0.5
 62
   256
  6
BYLAYER
 49
-0.5
 62
   256
  6
BYLAYER
  0
ACDBPLACEHOLDER
  5
F
102
{ACAD_REACTORS
330
E
102
}
330
E
  0
SCALE
  5
48
102
{ACAD_REACTORS
330
47
102
}
330
47
100
AcDbScale
 70
     0
300
1:1
140
1.0
141
1.0
290
     1
  0
SCALE
  5
49
102
{ACAD_REACTORS
330
47
102
}
330
47
100
AcDbScale
 70
     0
300
1:2
140
1.0
141
2.0
290
     0
  0
SCALE
  5
4A
102
{ACAD_REACTORS
330
47
102
}
330
47
100
AcDbScale
 70
     0
300
1:4
140
1.0
141
4.0
290
     0
  0
SCALE
  5
4B
102
{ACAD_REACTORS
330
47
102
}
330
47
100
AcDbScale
 70
     0
300
1:5
140
1.0
141
5.0
290
     0
  0
SCALE
  5
4C
102
{ACAD_REACTORS
330
47
102
}
330
47
100
AcDbScale
 70
     0
300
1:8
140
1.0
141
8.0
290
     0
  0
SCALE
  5
4D
102
{ACAD_REACTORS
330
47
102
}
330
47
100
AcDbScale
 70
     0
300
1:10
140
1.0
141
10.0
290
     0
  0
SCALE
  5
4E
102
{ACAD_REACTORS
330
47
102
}
330
47
100
AcDbScale
 70
     0
300
1:16
140
1.0
141
16.0
290
     0
  0
SCALE
  5
4F
102
{ACAD_REACTORS
330
47
102
}
330
47
100
AcDbScale
 70
     0
300
1:20
140
1.0
141
20.0
290
     0
  0
SCALE
  5
50
102
{ACAD_REACTORS
330
47
102
}
330
47
100
AcDbScale
 70
     0
300
1:30
140
1.0
141
30.0
290
     0
  0
SCALE
  5
51
102
{ACAD_REACTORS
330
47
102
}
330
47
100
AcDbScale
 70
     0
300
1:40
140
1.0
141
40.0
290
     0
  0
SCALE
  5
52
102
{ACAD_REACTORS
330
47
102
}
330
47
100
AcDbScale
 70
     0
300
1:50
140
1.0
141
50.0
290
     0
  0
SCALE
  5
53
102
{ACAD_REACTORS
330
47
102
}
330
47
100
AcDbScale
 70
     0
300
1:100
140
1.0
141
100.0
290
     0
  0
SCALE
  5
54
102
{ACAD_REACTORS
330
47
102
}
330
47
100
AcDbScale
 70
     0
300
2:1
140
2.0
141
1.0
290
     0
  0
SCALE
  5
55
102
{ACAD_REACTORS
330
47
102
}
330
47
100
AcDbScale
 70
     0
300
4:1
140
4.0
141
1.0
290
     0
  0
SCALE
  5
56
102
{ACAD_REACTORS
330
47
102
}
330
47
100
AcDbScale
 70
     0
300
8:1
140
8.0
141
1.0
290
     0
  0
SCALE
  5
57
102
{ACAD_REACTORS
330
47
102
}
330
47
100
AcDbScale
 70
     0
300
10:1
140
10.0
141
1.0
290
     0
  0
SCALE
  5
58
102
{ACAD_REACTORS
330
47
102
}
330
47
100
AcDbScale
 70
     0
300
100:1
140
100.0
141
1.0
290
     0
  0
ENDSEC
  0
EOF
